M48
; DRILL file {KiCad 5.1.9+dfsg1-1} date Wed Aug 18 14:44:13 2021
; FORMAT={-:-/ absolute / inch / decimal}
; #@! TF.CreationDate,2021-08-18T14:44:13-04:00
; #@! TF.GenerationSoftware,Kicad,Pcbnew,5.1.9+dfsg1-1
; #@! TF.FileFunction,Plated,1,2,PTH
FMAT,2
INCH
T1C0.0157
T2C0.0394
T3C0.0433
%
G90
G05
T1
X0.775Y-2.65
X0.85Y-2.5
X0.8783Y-2.4629
X0.89Y-2.52
X0.9Y-2.1
X0.975Y-2.635
X1.05Y-2.6485
X1.1253Y-2.5715
X1.18Y-1.78
X1.26Y-1.92
X1.26Y-2.51
X1.3014Y-2.1534
X1.32Y-2.22
X1.3471Y-2.448
X1.3496Y-2.6917
X1.36Y-2.49
X1.44Y-1.97
X1.48Y-2.04
X1.54Y-1.86
X1.56Y-1.97
X1.6Y-2.04
X1.62Y-2.5806
X1.67Y-2.04
X1.67Y-2.13
X1.6987Y-1.894
X1.7045Y-1.8551
X1.7059Y-1.9511
X1.7264Y-1.7992
X1.74Y-1.92
X1.74Y-2.12
X1.7575Y-1.7307
X1.76Y-1.77
X1.7892Y-2.5893
X1.82Y-2.18
X1.82Y-2.6137
X1.86Y-2.1515
X1.87Y-2.0
X1.925Y-2.625
X2.17Y-2.03
X2.18Y-2.6315
X2.2152Y-1.8749
X2.2453Y-1.978
X2.27Y-1.85
X2.3Y-2.51
X2.3295Y-1.8982
X2.4Y-2.03
X2.45Y-2.52
X2.45Y-2.77
X2.4521Y-1.9248
X2.48Y-1.85
X2.4872Y-1.9071
X2.5032Y-1.9641
X2.52Y-2.0206
X2.52Y-2.06
X2.52Y-2.1
X2.52Y-2.14
X2.56Y-2.64
X2.6Y-2.6285
X2.6298Y-2.8307
X2.6407Y-2.7929
X2.68Y-2.79
X2.7298Y-2.1002
X2.73Y-2.06
X2.7404Y-2.4654
X2.76Y-2.23
X2.7806Y-2.622
X2.8Y-1.88
X2.82Y-2.6298
X2.85Y-2.19
X2.8853Y-2.645
X2.9Y-1.88
X2.9353Y-2.4677
X2.94Y-2.64
X2.9494Y-2.0485
X2.9497Y-2.4311
X2.96Y-1.88
X2.9849Y-2.4943
X2.9885Y-2.02
X3.01Y-1.88
X3.0425Y-2.0737
X3.08Y-2.0285
X3.12Y-1.88
X3.14Y-2.2
X3.1411Y-2.69
X3.1696Y-2.7215
X3.1715Y-2.4737
X3.18Y-2.32
X3.2Y-2.02
X3.2Y-2.42
X3.2197Y-2.6166
X3.26Y-1.92
X3.26Y-2.62
X3.33Y-2.2
X3.34Y-2.02
X3.375Y-2.625
X3.4Y-1.9
X3.57Y-2.14
X3.86Y-2.57
X3.929Y-2.447
X3.93Y-2.4883
X3.9706Y-2.4463
X4.01Y-2.13
X4.05Y-2.5237
X4.1Y-2.5415
X4.24Y-1.76
X4.25Y-2.506
X4.28Y-2.08
X4.3231Y-2.0385
X4.34Y-2.4529
X4.4042Y-2.8046
X4.45Y-2.4706
X4.45Y-2.75
X4.47Y-1.98
X4.5Y-2.01
X4.52Y-1.86
X4.5264Y-2.4883
X4.527Y-1.7218
X4.5482Y-1.9382
X4.5513Y-1.979
X4.5587Y-1.6985
X4.6799Y-1.7319
X4.6808Y-1.8457
X4.69Y-2.15
X4.7Y-1.95
X4.725Y-1.7529
X4.7318Y-2.506
X4.7798Y-2.5021
X4.7808Y-2.5415
X4.8Y-1.7815
X4.83Y-2.57
X4.9105Y-1.9145
X5.2018Y-1.7815
X5.21Y-2.01
X5.219Y-1.746
X5.2509Y-1.7703
X5.2537Y-1.88
X5.2597Y-1.8229
X5.42Y-2.02
T2
X0.75Y-2.75
X0.85Y-2.75
X0.95Y-2.75
X1.05Y-2.75
X1.15Y-2.75
X1.25Y-2.75
X1.35Y-2.75
X1.45Y-2.75
X1.55Y-2.75
X1.65Y-2.75
X1.75Y-2.75
X1.85Y-2.75
X1.95Y-2.75
X2.05Y-2.75
X2.1Y-1.725
X2.15Y-2.75
X2.2Y-1.725
X2.7Y-1.725
X2.8Y-1.725
X2.8Y-2.75
X2.9Y-1.725
X2.9Y-2.75
X3.0Y-1.725
X3.0Y-2.75
X3.1Y-1.725
X3.1Y-2.75
X3.2Y-1.725
X3.75Y-1.725
X3.85Y-1.725
X3.85Y-2.75
X3.95Y-2.75
X4.05Y-2.75
X4.15Y-2.75
X4.25Y-2.75
X4.35Y-2.75
X4.45Y-2.75
X4.55Y-2.75
X4.65Y-2.75
X4.75Y-2.75
X4.85Y-2.75
X4.95Y-2.75
X5.05Y-2.75
X5.15Y-2.75
X5.25Y-2.75
T3
X0.8Y-2.25
X0.8Y-2.35
X0.9Y-2.25
X0.9Y-2.35
X1.0Y-2.25
X1.0Y-2.35
X1.1Y-2.25
X1.1Y-2.35
X1.2Y-2.25
X1.2Y-2.35
X1.75Y-2.25
X1.75Y-2.35
X1.85Y-2.25
X1.85Y-2.35
X1.95Y-2.25
X1.95Y-2.35
X2.05Y-2.25
X2.05Y-2.35
X2.15Y-2.25
X2.15Y-2.35
X3.8Y-2.225
X3.8Y-2.325
X3.9Y-2.225
X3.9Y-2.325
X4.0Y-2.225
X4.0Y-2.325
X4.1Y-2.225
X4.1Y-2.325
X4.2Y-2.225
X4.2Y-2.325
X4.75Y-2.225
X4.75Y-2.325
X4.85Y-2.225
X4.85Y-2.325
X4.95Y-2.225
X4.95Y-2.325
X5.05Y-2.225
X5.05Y-2.325
X5.15Y-2.225
X5.15Y-2.325
T0
M30
