%TF.GenerationSoftware,KiCad,Pcbnew,5.1.9+dfsg1-1*%
%TF.CreationDate,2021-08-18T14:47:46-04:00*%
%TF.ProjectId,custom_toothbrush_board,63757374-6f6d-45f7-946f-6f7468627275,rev?*%
%TF.SameCoordinates,Original*%
%TF.FileFunction,Legend,Top*%
%TF.FilePolarity,Positive*%
%FSLAX46Y46*%
G04 Gerber Fmt 4.6, Leading zero omitted, Abs format (unit mm)*
G04 Created by KiCad (PCBNEW 5.1.9+dfsg1-1) date 2021-08-18 14:47:46*
%MOMM*%
%LPD*%
G01*
G04 APERTURE LIST*
%ADD10C,0.150000*%
%ADD11C,0.120000*%
%ADD12C,0.200000*%
%ADD13C,0.100000*%
%ADD14C,0.081280*%
G04 APERTURE END LIST*
D10*
X18562090Y-72511254D02*
X18694533Y-72555402D01*
X18915271Y-72555402D01*
X19003566Y-72511254D01*
X19047714Y-72467107D01*
X19091861Y-72378811D01*
X19091861Y-72290516D01*
X19047714Y-72202221D01*
X19003566Y-72158073D01*
X18915271Y-72113926D01*
X18738680Y-72069778D01*
X18650385Y-72025630D01*
X18606238Y-71981483D01*
X18562090Y-71893188D01*
X18562090Y-71804892D01*
X18606238Y-71716597D01*
X18650385Y-71672450D01*
X18738680Y-71628302D01*
X18959419Y-71628302D01*
X19091861Y-71672450D01*
X19445042Y-71716597D02*
X19489190Y-71672450D01*
X19577485Y-71628302D01*
X19798223Y-71628302D01*
X19886519Y-71672450D01*
X19930666Y-71716597D01*
X19974814Y-71804892D01*
X19974814Y-71893188D01*
X19930666Y-72025630D01*
X19400895Y-72555402D01*
X19974814Y-72555402D01*
X21034357Y-72511254D02*
X21166800Y-72555402D01*
X21387538Y-72555402D01*
X21475833Y-72511254D01*
X21519980Y-72467107D01*
X21564128Y-72378811D01*
X21564128Y-72290516D01*
X21519980Y-72202221D01*
X21475833Y-72158073D01*
X21387538Y-72113926D01*
X21210947Y-72069778D01*
X21122652Y-72025630D01*
X21078504Y-71981483D01*
X21034357Y-71893188D01*
X21034357Y-71804892D01*
X21078504Y-71716597D01*
X21122652Y-71672450D01*
X21210947Y-71628302D01*
X21431685Y-71628302D01*
X21564128Y-71672450D01*
X22447080Y-72555402D02*
X21917309Y-72555402D01*
X22182195Y-72555402D02*
X22182195Y-71628302D01*
X22093900Y-71760745D01*
X22005604Y-71849040D01*
X21917309Y-71893188D01*
X23550771Y-72555402D02*
X23550771Y-71628302D01*
X23771509Y-71628302D01*
X23903952Y-71672450D01*
X23992247Y-71760745D01*
X24036395Y-71849040D01*
X24080542Y-72025630D01*
X24080542Y-72158073D01*
X24036395Y-72334664D01*
X23992247Y-72422959D01*
X23903952Y-72511254D01*
X23771509Y-72555402D01*
X23550771Y-72555402D01*
X24875200Y-71628302D02*
X24698609Y-71628302D01*
X24610314Y-71672450D01*
X24566166Y-71716597D01*
X24477871Y-71849040D01*
X24433723Y-72025630D01*
X24433723Y-72378811D01*
X24477871Y-72467107D01*
X24522019Y-72511254D01*
X24610314Y-72555402D01*
X24786904Y-72555402D01*
X24875200Y-72511254D01*
X24919347Y-72467107D01*
X24963495Y-72378811D01*
X24963495Y-72158073D01*
X24919347Y-72069778D01*
X24875200Y-72025630D01*
X24786904Y-71981483D01*
X24610314Y-71981483D01*
X24522019Y-72025630D01*
X24477871Y-72069778D01*
X24433723Y-72158073D01*
X26067185Y-72555402D02*
X26067185Y-71628302D01*
X26287923Y-71628302D01*
X26420366Y-71672450D01*
X26508661Y-71760745D01*
X26552809Y-71849040D01*
X26596957Y-72025630D01*
X26596957Y-72158073D01*
X26552809Y-72334664D01*
X26508661Y-72422959D01*
X26420366Y-72511254D01*
X26287923Y-72555402D01*
X26067185Y-72555402D01*
X27435761Y-71628302D02*
X26994285Y-71628302D01*
X26950138Y-72069778D01*
X26994285Y-72025630D01*
X27082580Y-71981483D01*
X27303319Y-71981483D01*
X27391614Y-72025630D01*
X27435761Y-72069778D01*
X27479909Y-72158073D01*
X27479909Y-72378811D01*
X27435761Y-72467107D01*
X27391614Y-72511254D01*
X27303319Y-72555402D01*
X27082580Y-72555402D01*
X26994285Y-72511254D01*
X26950138Y-72467107D01*
X28583600Y-72555402D02*
X28583600Y-71628302D01*
X28804338Y-71628302D01*
X28936780Y-71672450D01*
X29025076Y-71760745D01*
X29069223Y-71849040D01*
X29113371Y-72025630D01*
X29113371Y-72158073D01*
X29069223Y-72334664D01*
X29025076Y-72422959D01*
X28936780Y-72511254D01*
X28804338Y-72555402D01*
X28583600Y-72555402D01*
X29908028Y-71937335D02*
X29908028Y-72555402D01*
X29687290Y-71584154D02*
X29466552Y-72246369D01*
X30040471Y-72246369D01*
X31100014Y-72555402D02*
X31100014Y-71628302D01*
X31320752Y-71628302D01*
X31453195Y-71672450D01*
X31541490Y-71760745D01*
X31585638Y-71849040D01*
X31629785Y-72025630D01*
X31629785Y-72158073D01*
X31585638Y-72334664D01*
X31541490Y-72422959D01*
X31453195Y-72511254D01*
X31320752Y-72555402D01*
X31100014Y-72555402D01*
X31938819Y-71628302D02*
X32512738Y-71628302D01*
X32203704Y-71981483D01*
X32336147Y-71981483D01*
X32424442Y-72025630D01*
X32468590Y-72069778D01*
X32512738Y-72158073D01*
X32512738Y-72378811D01*
X32468590Y-72467107D01*
X32424442Y-72511254D01*
X32336147Y-72555402D01*
X32071261Y-72555402D01*
X31982966Y-72511254D01*
X31938819Y-72467107D01*
X33616428Y-72555402D02*
X33616428Y-71628302D01*
X33837166Y-71628302D01*
X33969609Y-71672450D01*
X34057904Y-71760745D01*
X34102052Y-71849040D01*
X34146200Y-72025630D01*
X34146200Y-72158073D01*
X34102052Y-72334664D01*
X34057904Y-72422959D01*
X33969609Y-72511254D01*
X33837166Y-72555402D01*
X33616428Y-72555402D01*
X34499380Y-71716597D02*
X34543528Y-71672450D01*
X34631823Y-71628302D01*
X34852561Y-71628302D01*
X34940857Y-71672450D01*
X34985004Y-71716597D01*
X35029152Y-71804892D01*
X35029152Y-71893188D01*
X34985004Y-72025630D01*
X34455233Y-72555402D01*
X35029152Y-72555402D01*
X36132842Y-72555402D02*
X36132842Y-71628302D01*
X36353580Y-71628302D01*
X36486023Y-71672450D01*
X36574319Y-71760745D01*
X36618466Y-71849040D01*
X36662614Y-72025630D01*
X36662614Y-72158073D01*
X36618466Y-72334664D01*
X36574319Y-72422959D01*
X36486023Y-72511254D01*
X36353580Y-72555402D01*
X36132842Y-72555402D01*
X37545566Y-72555402D02*
X37015795Y-72555402D01*
X37280680Y-72555402D02*
X37280680Y-71628302D01*
X37192385Y-71760745D01*
X37104090Y-71849040D01*
X37015795Y-71893188D01*
X38428519Y-71273488D02*
X39488061Y-71273488D01*
X38649257Y-72555402D02*
X38649257Y-71628302D01*
X38958290Y-72290516D01*
X39267323Y-71628302D01*
X39267323Y-72555402D01*
X39488061Y-71273488D02*
X40371014Y-71273488D01*
X39664652Y-71716597D02*
X39708800Y-71672450D01*
X39797095Y-71628302D01*
X40017833Y-71628302D01*
X40106128Y-71672450D01*
X40150276Y-71716597D01*
X40194423Y-71804892D01*
X40194423Y-71893188D01*
X40150276Y-72025630D01*
X39620504Y-72555402D01*
X40194423Y-72555402D01*
X41298114Y-72555402D02*
X41298114Y-71628302D01*
X41607147Y-72290516D01*
X41916180Y-71628302D01*
X41916180Y-72555402D01*
X42313509Y-71716597D02*
X42357657Y-71672450D01*
X42445952Y-71628302D01*
X42666690Y-71628302D01*
X42754985Y-71672450D01*
X42799133Y-71716597D01*
X42843280Y-71804892D01*
X42843280Y-71893188D01*
X42799133Y-72025630D01*
X42269361Y-72555402D01*
X42843280Y-72555402D01*
X43726233Y-71273488D02*
X44785776Y-71273488D01*
X43946971Y-72555402D02*
X43946971Y-71628302D01*
X44256004Y-72290516D01*
X44565038Y-71628302D01*
X44565038Y-72555402D01*
X44785776Y-71273488D02*
X45668728Y-71273488D01*
X45492138Y-72555402D02*
X44962366Y-72555402D01*
X45227252Y-72555402D02*
X45227252Y-71628302D01*
X45138957Y-71760745D01*
X45050661Y-71849040D01*
X44962366Y-71893188D01*
X46595828Y-72555402D02*
X46595828Y-71628302D01*
X46904861Y-72290516D01*
X47213895Y-71628302D01*
X47213895Y-72555402D01*
X48140995Y-72555402D02*
X47611223Y-72555402D01*
X47876109Y-72555402D02*
X47876109Y-71628302D01*
X47787814Y-71760745D01*
X47699519Y-71849040D01*
X47611223Y-71893188D01*
X49112242Y-71628302D02*
X49421276Y-72555402D01*
X49730309Y-71628302D01*
X49995195Y-71716597D02*
X50039342Y-71672450D01*
X50127638Y-71628302D01*
X50348376Y-71628302D01*
X50436671Y-71672450D01*
X50480819Y-71716597D01*
X50524966Y-71804892D01*
X50524966Y-71893188D01*
X50480819Y-72025630D01*
X49951047Y-72555402D01*
X50524966Y-72555402D01*
X51496214Y-71628302D02*
X51805247Y-72555402D01*
X52114280Y-71628302D01*
X52908938Y-72555402D02*
X52379166Y-72555402D01*
X52644052Y-72555402D02*
X52644052Y-71628302D01*
X52555757Y-71760745D01*
X52467461Y-71849040D01*
X52379166Y-71893188D01*
X53791890Y-71273488D02*
X54630695Y-71273488D01*
X54012628Y-72069778D02*
X54321661Y-72069778D01*
X54454104Y-72555402D02*
X54012628Y-72555402D01*
X54012628Y-71628302D01*
X54454104Y-71628302D01*
X54630695Y-71273488D02*
X55601942Y-71273488D01*
X54851433Y-72555402D02*
X54851433Y-71628302D01*
X55381204Y-72555402D01*
X55381204Y-71628302D01*
X97048090Y-72765254D02*
X97180533Y-72809402D01*
X97401271Y-72809402D01*
X97489566Y-72765254D01*
X97533714Y-72721107D01*
X97577861Y-72632811D01*
X97577861Y-72544516D01*
X97533714Y-72456221D01*
X97489566Y-72412073D01*
X97401271Y-72367926D01*
X97224680Y-72323778D01*
X97136385Y-72279630D01*
X97092238Y-72235483D01*
X97048090Y-72147188D01*
X97048090Y-72058892D01*
X97092238Y-71970597D01*
X97136385Y-71926450D01*
X97224680Y-71882302D01*
X97445419Y-71882302D01*
X97577861Y-71926450D01*
X97931042Y-71970597D02*
X97975190Y-71926450D01*
X98063485Y-71882302D01*
X98284223Y-71882302D01*
X98372519Y-71926450D01*
X98416666Y-71970597D01*
X98460814Y-72058892D01*
X98460814Y-72147188D01*
X98416666Y-72279630D01*
X97886895Y-72809402D01*
X98460814Y-72809402D01*
X99520357Y-72765254D02*
X99652800Y-72809402D01*
X99873538Y-72809402D01*
X99961833Y-72765254D01*
X100005980Y-72721107D01*
X100050128Y-72632811D01*
X100050128Y-72544516D01*
X100005980Y-72456221D01*
X99961833Y-72412073D01*
X99873538Y-72367926D01*
X99696947Y-72323778D01*
X99608652Y-72279630D01*
X99564504Y-72235483D01*
X99520357Y-72147188D01*
X99520357Y-72058892D01*
X99564504Y-71970597D01*
X99608652Y-71926450D01*
X99696947Y-71882302D01*
X99917685Y-71882302D01*
X100050128Y-71926450D01*
X100933080Y-72809402D02*
X100403309Y-72809402D01*
X100668195Y-72809402D02*
X100668195Y-71882302D01*
X100579900Y-72014745D01*
X100491604Y-72103040D01*
X100403309Y-72147188D01*
X102036771Y-72809402D02*
X102036771Y-71882302D01*
X102257509Y-71882302D01*
X102389952Y-71926450D01*
X102478247Y-72014745D01*
X102522395Y-72103040D01*
X102566542Y-72279630D01*
X102566542Y-72412073D01*
X102522395Y-72588664D01*
X102478247Y-72676959D01*
X102389952Y-72765254D01*
X102257509Y-72809402D01*
X102036771Y-72809402D01*
X103361200Y-71882302D02*
X103184609Y-71882302D01*
X103096314Y-71926450D01*
X103052166Y-71970597D01*
X102963871Y-72103040D01*
X102919723Y-72279630D01*
X102919723Y-72632811D01*
X102963871Y-72721107D01*
X103008019Y-72765254D01*
X103096314Y-72809402D01*
X103272904Y-72809402D01*
X103361200Y-72765254D01*
X103405347Y-72721107D01*
X103449495Y-72632811D01*
X103449495Y-72412073D01*
X103405347Y-72323778D01*
X103361200Y-72279630D01*
X103272904Y-72235483D01*
X103096314Y-72235483D01*
X103008019Y-72279630D01*
X102963871Y-72323778D01*
X102919723Y-72412073D01*
X104553185Y-72809402D02*
X104553185Y-71882302D01*
X104773923Y-71882302D01*
X104906366Y-71926450D01*
X104994661Y-72014745D01*
X105038809Y-72103040D01*
X105082957Y-72279630D01*
X105082957Y-72412073D01*
X105038809Y-72588664D01*
X104994661Y-72676959D01*
X104906366Y-72765254D01*
X104773923Y-72809402D01*
X104553185Y-72809402D01*
X105921761Y-71882302D02*
X105480285Y-71882302D01*
X105436138Y-72323778D01*
X105480285Y-72279630D01*
X105568580Y-72235483D01*
X105789319Y-72235483D01*
X105877614Y-72279630D01*
X105921761Y-72323778D01*
X105965909Y-72412073D01*
X105965909Y-72632811D01*
X105921761Y-72721107D01*
X105877614Y-72765254D01*
X105789319Y-72809402D01*
X105568580Y-72809402D01*
X105480285Y-72765254D01*
X105436138Y-72721107D01*
X107069600Y-72809402D02*
X107069600Y-71882302D01*
X107290338Y-71882302D01*
X107422780Y-71926450D01*
X107511076Y-72014745D01*
X107555223Y-72103040D01*
X107599371Y-72279630D01*
X107599371Y-72412073D01*
X107555223Y-72588664D01*
X107511076Y-72676959D01*
X107422780Y-72765254D01*
X107290338Y-72809402D01*
X107069600Y-72809402D01*
X108394028Y-72191335D02*
X108394028Y-72809402D01*
X108173290Y-71838154D02*
X107952552Y-72500369D01*
X108526471Y-72500369D01*
X109586014Y-72809402D02*
X109586014Y-71882302D01*
X109806752Y-71882302D01*
X109939195Y-71926450D01*
X110027490Y-72014745D01*
X110071638Y-72103040D01*
X110115785Y-72279630D01*
X110115785Y-72412073D01*
X110071638Y-72588664D01*
X110027490Y-72676959D01*
X109939195Y-72765254D01*
X109806752Y-72809402D01*
X109586014Y-72809402D01*
X110424819Y-71882302D02*
X110998738Y-71882302D01*
X110689704Y-72235483D01*
X110822147Y-72235483D01*
X110910442Y-72279630D01*
X110954590Y-72323778D01*
X110998738Y-72412073D01*
X110998738Y-72632811D01*
X110954590Y-72721107D01*
X110910442Y-72765254D01*
X110822147Y-72809402D01*
X110557261Y-72809402D01*
X110468966Y-72765254D01*
X110424819Y-72721107D01*
X112102428Y-72809402D02*
X112102428Y-71882302D01*
X112323166Y-71882302D01*
X112455609Y-71926450D01*
X112543904Y-72014745D01*
X112588052Y-72103040D01*
X112632200Y-72279630D01*
X112632200Y-72412073D01*
X112588052Y-72588664D01*
X112543904Y-72676959D01*
X112455609Y-72765254D01*
X112323166Y-72809402D01*
X112102428Y-72809402D01*
X112985380Y-71970597D02*
X113029528Y-71926450D01*
X113117823Y-71882302D01*
X113338561Y-71882302D01*
X113426857Y-71926450D01*
X113471004Y-71970597D01*
X113515152Y-72058892D01*
X113515152Y-72147188D01*
X113471004Y-72279630D01*
X112941233Y-72809402D01*
X113515152Y-72809402D01*
X114618842Y-72809402D02*
X114618842Y-71882302D01*
X114839580Y-71882302D01*
X114972023Y-71926450D01*
X115060319Y-72014745D01*
X115104466Y-72103040D01*
X115148614Y-72279630D01*
X115148614Y-72412073D01*
X115104466Y-72588664D01*
X115060319Y-72676959D01*
X114972023Y-72765254D01*
X114839580Y-72809402D01*
X114618842Y-72809402D01*
X116031566Y-72809402D02*
X115501795Y-72809402D01*
X115766680Y-72809402D02*
X115766680Y-71882302D01*
X115678385Y-72014745D01*
X115590090Y-72103040D01*
X115501795Y-72147188D01*
X116914519Y-71527488D02*
X117974061Y-71527488D01*
X117135257Y-72809402D02*
X117135257Y-71882302D01*
X117444290Y-72544516D01*
X117753323Y-71882302D01*
X117753323Y-72809402D01*
X117974061Y-71527488D02*
X118857014Y-71527488D01*
X118150652Y-71970597D02*
X118194800Y-71926450D01*
X118283095Y-71882302D01*
X118503833Y-71882302D01*
X118592128Y-71926450D01*
X118636276Y-71970597D01*
X118680423Y-72058892D01*
X118680423Y-72147188D01*
X118636276Y-72279630D01*
X118106504Y-72809402D01*
X118680423Y-72809402D01*
X119784114Y-72809402D02*
X119784114Y-71882302D01*
X120093147Y-72544516D01*
X120402180Y-71882302D01*
X120402180Y-72809402D01*
X120799509Y-71970597D02*
X120843657Y-71926450D01*
X120931952Y-71882302D01*
X121152690Y-71882302D01*
X121240985Y-71926450D01*
X121285133Y-71970597D01*
X121329280Y-72058892D01*
X121329280Y-72147188D01*
X121285133Y-72279630D01*
X120755361Y-72809402D01*
X121329280Y-72809402D01*
X122212233Y-71527488D02*
X123271776Y-71527488D01*
X122432971Y-72809402D02*
X122432971Y-71882302D01*
X122742004Y-72544516D01*
X123051038Y-71882302D01*
X123051038Y-72809402D01*
X123271776Y-71527488D02*
X124154728Y-71527488D01*
X123978138Y-72809402D02*
X123448366Y-72809402D01*
X123713252Y-72809402D02*
X123713252Y-71882302D01*
X123624957Y-72014745D01*
X123536661Y-72103040D01*
X123448366Y-72147188D01*
X125081828Y-72809402D02*
X125081828Y-71882302D01*
X125390861Y-72544516D01*
X125699895Y-71882302D01*
X125699895Y-72809402D01*
X126626995Y-72809402D02*
X126097223Y-72809402D01*
X126362109Y-72809402D02*
X126362109Y-71882302D01*
X126273814Y-72014745D01*
X126185519Y-72103040D01*
X126097223Y-72147188D01*
X127598242Y-71882302D02*
X127907276Y-72809402D01*
X128216309Y-71882302D01*
X128481195Y-71970597D02*
X128525342Y-71926450D01*
X128613638Y-71882302D01*
X128834376Y-71882302D01*
X128922671Y-71926450D01*
X128966819Y-71970597D01*
X129010966Y-72058892D01*
X129010966Y-72147188D01*
X128966819Y-72279630D01*
X128437047Y-72809402D01*
X129010966Y-72809402D01*
X129982214Y-71882302D02*
X130291247Y-72809402D01*
X130600280Y-71882302D01*
X131394938Y-72809402D02*
X130865166Y-72809402D01*
X131130052Y-72809402D02*
X131130052Y-71882302D01*
X131041757Y-72014745D01*
X130953461Y-72103040D01*
X130865166Y-72147188D01*
X132277890Y-71527488D02*
X133116695Y-71527488D01*
X132498628Y-72323778D02*
X132807661Y-72323778D01*
X132940104Y-72809402D02*
X132498628Y-72809402D01*
X132498628Y-71882302D01*
X132940104Y-71882302D01*
X133116695Y-71527488D02*
X134087942Y-71527488D01*
X133337433Y-72809402D02*
X133337433Y-71882302D01*
X133867204Y-72809402D01*
X133867204Y-71882302D01*
X69779142Y-71588380D02*
X70398190Y-71588380D01*
X70064857Y-71969333D01*
X70207714Y-71969333D01*
X70302952Y-72016952D01*
X70350571Y-72064571D01*
X70398190Y-72159809D01*
X70398190Y-72397904D01*
X70350571Y-72493142D01*
X70302952Y-72540761D01*
X70207714Y-72588380D01*
X69922000Y-72588380D01*
X69826761Y-72540761D01*
X69779142Y-72493142D01*
X70683904Y-71588380D02*
X71017238Y-72588380D01*
X71350571Y-71588380D01*
X71588666Y-71588380D02*
X72207714Y-71588380D01*
X71874380Y-71969333D01*
X72017238Y-71969333D01*
X72112476Y-72016952D01*
X72160095Y-72064571D01*
X72207714Y-72159809D01*
X72207714Y-72397904D01*
X72160095Y-72493142D01*
X72112476Y-72540761D01*
X72017238Y-72588380D01*
X71731523Y-72588380D01*
X71636285Y-72540761D01*
X71588666Y-72493142D01*
X73398190Y-72588380D02*
X73398190Y-71588380D01*
X73636285Y-71588380D01*
X73779142Y-71636000D01*
X73874380Y-71731238D01*
X73922000Y-71826476D01*
X73969619Y-72016952D01*
X73969619Y-72159809D01*
X73922000Y-72350285D01*
X73874380Y-72445523D01*
X73779142Y-72540761D01*
X73636285Y-72588380D01*
X73398190Y-72588380D01*
X76493428Y-72493142D02*
X76445809Y-72540761D01*
X76302952Y-72588380D01*
X76207714Y-72588380D01*
X76064857Y-72540761D01*
X75969619Y-72445523D01*
X75922000Y-72350285D01*
X75874380Y-72159809D01*
X75874380Y-72016952D01*
X75922000Y-71826476D01*
X75969619Y-71731238D01*
X76064857Y-71636000D01*
X76207714Y-71588380D01*
X76302952Y-71588380D01*
X76445809Y-71636000D01*
X76493428Y-71683619D01*
X78969619Y-71636000D02*
X78874380Y-71588380D01*
X78731523Y-71588380D01*
X78588666Y-71636000D01*
X78493428Y-71731238D01*
X78445809Y-71826476D01*
X78398190Y-72016952D01*
X78398190Y-72159809D01*
X78445809Y-72350285D01*
X78493428Y-72445523D01*
X78588666Y-72540761D01*
X78731523Y-72588380D01*
X78826761Y-72588380D01*
X78969619Y-72540761D01*
X79017238Y-72493142D01*
X79017238Y-72159809D01*
X78826761Y-72159809D01*
X68556857Y-45728000D02*
X68461619Y-45680380D01*
X68318761Y-45680380D01*
X68175904Y-45728000D01*
X68080666Y-45823238D01*
X68033047Y-45918476D01*
X67985428Y-46108952D01*
X67985428Y-46251809D01*
X68033047Y-46442285D01*
X68080666Y-46537523D01*
X68175904Y-46632761D01*
X68318761Y-46680380D01*
X68414000Y-46680380D01*
X68556857Y-46632761D01*
X68604476Y-46585142D01*
X68604476Y-46251809D01*
X68414000Y-46251809D01*
X70890190Y-46156571D02*
X71033047Y-46204190D01*
X71080666Y-46251809D01*
X71128285Y-46347047D01*
X71128285Y-46489904D01*
X71080666Y-46585142D01*
X71033047Y-46632761D01*
X70937809Y-46680380D01*
X70556857Y-46680380D01*
X70556857Y-45680380D01*
X70890190Y-45680380D01*
X70985428Y-45728000D01*
X71033047Y-45775619D01*
X71080666Y-45870857D01*
X71080666Y-45966095D01*
X71033047Y-46061333D01*
X70985428Y-46108952D01*
X70890190Y-46156571D01*
X70556857Y-46156571D01*
X72842571Y-45313000D02*
X73842571Y-45313000D01*
X73652095Y-46680380D02*
X73318761Y-46204190D01*
X73080666Y-46680380D02*
X73080666Y-45680380D01*
X73461619Y-45680380D01*
X73556857Y-45728000D01*
X73604476Y-45775619D01*
X73652095Y-45870857D01*
X73652095Y-46013714D01*
X73604476Y-46108952D01*
X73556857Y-46156571D01*
X73461619Y-46204190D01*
X73080666Y-46204190D01*
X75556857Y-46632761D02*
X75699714Y-46680380D01*
X75937809Y-46680380D01*
X76033047Y-46632761D01*
X76080666Y-46585142D01*
X76128285Y-46489904D01*
X76128285Y-46394666D01*
X76080666Y-46299428D01*
X76033047Y-46251809D01*
X75937809Y-46204190D01*
X75747333Y-46156571D01*
X75652095Y-46108952D01*
X75604476Y-46061333D01*
X75556857Y-45966095D01*
X75556857Y-45870857D01*
X75604476Y-45775619D01*
X75652095Y-45728000D01*
X75747333Y-45680380D01*
X75985428Y-45680380D01*
X76128285Y-45728000D01*
X77128285Y-46585142D02*
X77080666Y-46632761D01*
X76937809Y-46680380D01*
X76842571Y-46680380D01*
X76699714Y-46632761D01*
X76604476Y-46537523D01*
X76556857Y-46442285D01*
X76509238Y-46251809D01*
X76509238Y-46108952D01*
X76556857Y-45918476D01*
X76604476Y-45823238D01*
X76699714Y-45728000D01*
X76842571Y-45680380D01*
X76937809Y-45680380D01*
X77080666Y-45728000D01*
X77128285Y-45775619D01*
X78271142Y-46632761D02*
X78414000Y-46680380D01*
X78652095Y-46680380D01*
X78747333Y-46632761D01*
X78794952Y-46585142D01*
X78842571Y-46489904D01*
X78842571Y-46394666D01*
X78794952Y-46299428D01*
X78747333Y-46251809D01*
X78652095Y-46204190D01*
X78461619Y-46156571D01*
X78366380Y-46108952D01*
X78318761Y-46061333D01*
X78271142Y-45966095D01*
X78271142Y-45870857D01*
X78318761Y-45775619D01*
X78366380Y-45728000D01*
X78461619Y-45680380D01*
X78699714Y-45680380D01*
X78842571Y-45728000D01*
X79271142Y-46680380D02*
X79271142Y-45680380D01*
X79509238Y-45680380D01*
X79652095Y-45728000D01*
X79747333Y-45823238D01*
X79794952Y-45918476D01*
X79842571Y-46108952D01*
X79842571Y-46251809D01*
X79794952Y-46442285D01*
X79747333Y-46537523D01*
X79652095Y-46632761D01*
X79509238Y-46680380D01*
X79271142Y-46680380D01*
X56141904Y-45728000D02*
X56046666Y-45680380D01*
X55903809Y-45680380D01*
X55760952Y-45728000D01*
X55665714Y-45823238D01*
X55618095Y-45918476D01*
X55570476Y-46108952D01*
X55570476Y-46251809D01*
X55618095Y-46442285D01*
X55665714Y-46537523D01*
X55760952Y-46632761D01*
X55903809Y-46680380D01*
X55999047Y-46680380D01*
X56141904Y-46632761D01*
X56189523Y-46585142D01*
X56189523Y-46251809D01*
X55999047Y-46251809D01*
X51593904Y-45680380D02*
X52212952Y-45680380D01*
X51879619Y-46061333D01*
X52022476Y-46061333D01*
X52117714Y-46108952D01*
X52165333Y-46156571D01*
X52212952Y-46251809D01*
X52212952Y-46489904D01*
X52165333Y-46585142D01*
X52117714Y-46632761D01*
X52022476Y-46680380D01*
X51736761Y-46680380D01*
X51641523Y-46632761D01*
X51593904Y-46585142D01*
X52498666Y-45680380D02*
X52832000Y-46680380D01*
X53165333Y-45680380D01*
X53403428Y-45680380D02*
X54022476Y-45680380D01*
X53689142Y-46061333D01*
X53832000Y-46061333D01*
X53927238Y-46108952D01*
X53974857Y-46156571D01*
X54022476Y-46251809D01*
X54022476Y-46489904D01*
X53974857Y-46585142D01*
X53927238Y-46632761D01*
X53832000Y-46680380D01*
X53546285Y-46680380D01*
X53451047Y-46632761D01*
X53403428Y-46585142D01*
X98051904Y-45728000D02*
X97956666Y-45680380D01*
X97813809Y-45680380D01*
X97670952Y-45728000D01*
X97575714Y-45823238D01*
X97528095Y-45918476D01*
X97480476Y-46108952D01*
X97480476Y-46251809D01*
X97528095Y-46442285D01*
X97575714Y-46537523D01*
X97670952Y-46632761D01*
X97813809Y-46680380D01*
X97909047Y-46680380D01*
X98051904Y-46632761D01*
X98099523Y-46585142D01*
X98099523Y-46251809D01*
X97909047Y-46251809D01*
X93202285Y-46299428D02*
X93964190Y-46299428D01*
X93583238Y-46680380D02*
X93583238Y-45918476D01*
X94488000Y-46680380D02*
X94678476Y-46680380D01*
X94773714Y-46632761D01*
X94821333Y-46585142D01*
X94916571Y-46442285D01*
X94964190Y-46251809D01*
X94964190Y-45870857D01*
X94916571Y-45775619D01*
X94868952Y-45728000D01*
X94773714Y-45680380D01*
X94583238Y-45680380D01*
X94488000Y-45728000D01*
X94440380Y-45775619D01*
X94392761Y-45870857D01*
X94392761Y-46108952D01*
X94440380Y-46204190D01*
X94488000Y-46251809D01*
X94583238Y-46299428D01*
X94773714Y-46299428D01*
X94868952Y-46251809D01*
X94916571Y-46204190D01*
X94964190Y-46108952D01*
X95249904Y-45680380D02*
X95583238Y-46680380D01*
X95916571Y-45680380D01*
X14867428Y-42331714D02*
X14867428Y-42998380D01*
X14629333Y-41950761D02*
X14391238Y-42665047D01*
X15010285Y-42665047D01*
X15962666Y-42903142D02*
X15915047Y-42950761D01*
X15772190Y-42998380D01*
X15676952Y-42998380D01*
X15534095Y-42950761D01*
X15438857Y-42855523D01*
X15391238Y-42760285D01*
X15343619Y-42569809D01*
X15343619Y-42426952D01*
X15391238Y-42236476D01*
X15438857Y-42141238D01*
X15534095Y-42046000D01*
X15676952Y-41998380D01*
X15772190Y-41998380D01*
X15915047Y-42046000D01*
X15962666Y-42093619D01*
X16391238Y-42998380D02*
X16391238Y-41998380D01*
X16391238Y-42474571D02*
X16962666Y-42474571D01*
X16962666Y-42998380D02*
X16962666Y-41998380D01*
X18200761Y-42998380D02*
X18200761Y-41998380D01*
X18438857Y-41998380D01*
X18581714Y-42046000D01*
X18676952Y-42141238D01*
X18724571Y-42236476D01*
X18772190Y-42426952D01*
X18772190Y-42569809D01*
X18724571Y-42760285D01*
X18676952Y-42855523D01*
X18581714Y-42950761D01*
X18438857Y-42998380D01*
X18200761Y-42998380D01*
X19772190Y-42998380D02*
X19438857Y-42522190D01*
X19200761Y-42998380D02*
X19200761Y-41998380D01*
X19581714Y-41998380D01*
X19676952Y-42046000D01*
X19724571Y-42093619D01*
X19772190Y-42188857D01*
X19772190Y-42331714D01*
X19724571Y-42426952D01*
X19676952Y-42474571D01*
X19581714Y-42522190D01*
X19200761Y-42522190D01*
X20057904Y-41998380D02*
X20391238Y-42998380D01*
X20724571Y-41998380D01*
X21676952Y-41998380D02*
X22010285Y-42998380D01*
X22343619Y-41998380D01*
X23200761Y-42998380D02*
X22629333Y-42998380D01*
X22915047Y-42998380D02*
X22915047Y-41998380D01*
X22819809Y-42141238D01*
X22724571Y-42236476D01*
X22629333Y-42284095D01*
X15248380Y-44600761D02*
X15391238Y-44648380D01*
X15629333Y-44648380D01*
X15724571Y-44600761D01*
X15772190Y-44553142D01*
X15819809Y-44457904D01*
X15819809Y-44362666D01*
X15772190Y-44267428D01*
X15724571Y-44219809D01*
X15629333Y-44172190D01*
X15438857Y-44124571D01*
X15343619Y-44076952D01*
X15296000Y-44029333D01*
X15248380Y-43934095D01*
X15248380Y-43838857D01*
X15296000Y-43743619D01*
X15343619Y-43696000D01*
X15438857Y-43648380D01*
X15676952Y-43648380D01*
X15819809Y-43696000D01*
X16248380Y-44553142D02*
X16296000Y-44600761D01*
X16248380Y-44648380D01*
X16200761Y-44600761D01*
X16248380Y-44553142D01*
X16248380Y-44648380D01*
X17486476Y-44648380D02*
X17486476Y-43648380D01*
X17819809Y-44362666D01*
X18153142Y-43648380D01*
X18153142Y-44648380D01*
X18581714Y-44362666D02*
X19057904Y-44362666D01*
X18486476Y-44648380D02*
X18819809Y-43648380D01*
X19153142Y-44648380D01*
X20057904Y-44648380D02*
X19724571Y-44172190D01*
X19486476Y-44648380D02*
X19486476Y-43648380D01*
X19867428Y-43648380D01*
X19962666Y-43696000D01*
X20010285Y-43743619D01*
X20057904Y-43838857D01*
X20057904Y-43981714D01*
X20010285Y-44076952D01*
X19962666Y-44124571D01*
X19867428Y-44172190D01*
X19486476Y-44172190D01*
X20343619Y-43648380D02*
X20915047Y-43648380D01*
X20629333Y-44648380D02*
X20629333Y-43648380D01*
X21248380Y-44648380D02*
X21248380Y-43648380D01*
X21724571Y-44648380D02*
X21724571Y-43648380D01*
X22296000Y-44648380D01*
X22296000Y-43648380D01*
X16081714Y-45393619D02*
X16129333Y-45346000D01*
X16224571Y-45298380D01*
X16462666Y-45298380D01*
X16557904Y-45346000D01*
X16605523Y-45393619D01*
X16653142Y-45488857D01*
X16653142Y-45584095D01*
X16605523Y-45726952D01*
X16034095Y-46298380D01*
X16653142Y-46298380D01*
X17272190Y-45298380D02*
X17367428Y-45298380D01*
X17462666Y-45346000D01*
X17510285Y-45393619D01*
X17557904Y-45488857D01*
X17605523Y-45679333D01*
X17605523Y-45917428D01*
X17557904Y-46107904D01*
X17510285Y-46203142D01*
X17462666Y-46250761D01*
X17367428Y-46298380D01*
X17272190Y-46298380D01*
X17176952Y-46250761D01*
X17129333Y-46203142D01*
X17081714Y-46107904D01*
X17034095Y-45917428D01*
X17034095Y-45679333D01*
X17081714Y-45488857D01*
X17129333Y-45393619D01*
X17176952Y-45346000D01*
X17272190Y-45298380D01*
X17986476Y-45393619D02*
X18034095Y-45346000D01*
X18129333Y-45298380D01*
X18367428Y-45298380D01*
X18462666Y-45346000D01*
X18510285Y-45393619D01*
X18557904Y-45488857D01*
X18557904Y-45584095D01*
X18510285Y-45726952D01*
X17938857Y-46298380D01*
X18557904Y-46298380D01*
X19510285Y-46298380D02*
X18938857Y-46298380D01*
X19224571Y-46298380D02*
X19224571Y-45298380D01*
X19129333Y-45441238D01*
X19034095Y-45536476D01*
X18938857Y-45584095D01*
X20605523Y-46393619D02*
X20510285Y-46346000D01*
X20415047Y-46250761D01*
X20272190Y-46107904D01*
X20176952Y-46060285D01*
X20081714Y-46060285D01*
X20129333Y-46298380D02*
X20034095Y-46250761D01*
X19938857Y-46155523D01*
X19891238Y-45965047D01*
X19891238Y-45631714D01*
X19938857Y-45441238D01*
X20034095Y-45346000D01*
X20129333Y-45298380D01*
X20319809Y-45298380D01*
X20415047Y-45346000D01*
X20510285Y-45441238D01*
X20557904Y-45631714D01*
X20557904Y-45965047D01*
X20510285Y-46155523D01*
X20415047Y-46250761D01*
X20319809Y-46298380D01*
X20129333Y-46298380D01*
X20891238Y-45298380D02*
X21510285Y-45298380D01*
X21176952Y-45679333D01*
X21319809Y-45679333D01*
X21415047Y-45726952D01*
X21462666Y-45774571D01*
X21510285Y-45869809D01*
X21510285Y-46107904D01*
X21462666Y-46203142D01*
X21415047Y-46250761D01*
X21319809Y-46298380D01*
X21034095Y-46298380D01*
X20938857Y-46250761D01*
X20891238Y-46203142D01*
D11*
%TO.C,C1*%
X45210000Y-48113733D02*
X45210000Y-48406267D01*
X46230000Y-48113733D02*
X46230000Y-48406267D01*
%TO.C,C2*%
X123700000Y-48113733D02*
X123700000Y-48406267D01*
X122680000Y-48113733D02*
X122680000Y-48406267D01*
%TO.C,J1*%
X134680000Y-68520000D02*
X134680000Y-69850000D01*
X133350000Y-68520000D02*
X134680000Y-68520000D01*
X132080000Y-68520000D02*
X132080000Y-71180000D01*
X132080000Y-71180000D02*
X96460000Y-71180000D01*
X132080000Y-68520000D02*
X96460000Y-68520000D01*
X96460000Y-68520000D02*
X96460000Y-71180000D01*
%TO.C,J2*%
X17720000Y-68520000D02*
X17720000Y-71180000D01*
X53340000Y-68520000D02*
X17720000Y-68520000D01*
X53340000Y-71180000D02*
X17720000Y-71180000D01*
X53340000Y-68520000D02*
X53340000Y-71180000D01*
X54610000Y-68520000D02*
X55940000Y-68520000D01*
X55940000Y-68520000D02*
X55940000Y-69850000D01*
%TO.C,J3*%
X82610000Y-42485000D02*
X82610000Y-43815000D01*
X81280000Y-42485000D02*
X82610000Y-42485000D01*
X80010000Y-42485000D02*
X80010000Y-45145000D01*
X80010000Y-45145000D02*
X67250000Y-45145000D01*
X80010000Y-42485000D02*
X67250000Y-42485000D01*
X67250000Y-42485000D02*
X67250000Y-45145000D01*
%TO.C,J4*%
X69790000Y-71180000D02*
X69790000Y-69850000D01*
X71120000Y-71180000D02*
X69790000Y-71180000D01*
X72390000Y-71180000D02*
X72390000Y-68520000D01*
X72390000Y-68520000D02*
X80070000Y-68520000D01*
X72390000Y-71180000D02*
X80070000Y-71180000D01*
X80070000Y-71180000D02*
X80070000Y-68520000D01*
%TO.C,J6*%
X93920000Y-45145000D02*
X93920000Y-43815000D01*
X95250000Y-45145000D02*
X93920000Y-45145000D01*
X96520000Y-45145000D02*
X96520000Y-42485000D01*
X96520000Y-42485000D02*
X99120000Y-42485000D01*
X96520000Y-45145000D02*
X99120000Y-45145000D01*
X99120000Y-45145000D02*
X99120000Y-42485000D01*
%TO.C,U1*%
X82350000Y-63615000D02*
X83715000Y-63615000D01*
X82350000Y-64315000D02*
X82350000Y-63615000D01*
X81650000Y-64315000D02*
X82350000Y-64315000D01*
X68130000Y-64315000D02*
X68130000Y-63615000D01*
X68830000Y-64315000D02*
X68130000Y-64315000D01*
X82350000Y-50095000D02*
X82350000Y-50795000D01*
X81650000Y-50095000D02*
X82350000Y-50095000D01*
X68130000Y-50095000D02*
X68130000Y-50795000D01*
X68830000Y-50095000D02*
X68130000Y-50095000D01*
D10*
%TO.C,U2*%
X110790000Y-42890000D02*
X109190000Y-42890000D01*
X110790000Y-51315000D02*
X116540000Y-51315000D01*
X110790000Y-42665000D02*
X116540000Y-42665000D01*
X110790000Y-51315000D02*
X110790000Y-51015000D01*
X116540000Y-51315000D02*
X116540000Y-51015000D01*
X116540000Y-42665000D02*
X116540000Y-42965000D01*
X110790000Y-42665000D02*
X110790000Y-42890000D01*
%TO.C,U3*%
X34590000Y-42665000D02*
X34590000Y-42890000D01*
X40340000Y-42665000D02*
X40340000Y-42965000D01*
X40340000Y-51315000D02*
X40340000Y-51015000D01*
X34590000Y-51315000D02*
X34590000Y-51015000D01*
X34590000Y-42665000D02*
X40340000Y-42665000D01*
X34590000Y-51315000D02*
X40340000Y-51315000D01*
X34590000Y-42890000D02*
X32990000Y-42890000D01*
D12*
%TO.C,J7*%
X91320000Y-53260000D02*
X91320000Y-62310000D01*
X91320000Y-62310000D02*
X111880000Y-62310000D01*
X111880000Y-62310000D02*
X111880000Y-53260000D01*
X93570000Y-53260000D02*
X91320000Y-53260000D01*
X94210001Y-53260002D02*
G75*
G03*
X93570000Y-53260000I-320001J-124999D01*
G01*
X101270000Y-53260000D02*
X94210000Y-53260000D01*
X101910001Y-53260002D02*
G75*
G03*
X101270000Y-53260000I-320001J-124999D01*
G01*
X108970000Y-53260000D02*
X101910000Y-53260000D01*
X109610001Y-53260002D02*
G75*
G03*
X108970000Y-53260000I-320001J-124999D01*
G01*
X109610000Y-53260000D02*
X111880000Y-53260000D01*
X95260000Y-59655000D02*
G75*
G03*
X95260000Y-59655000I-100000J0D01*
G01*
D13*
G36*
X99350000Y-62210000D02*
G01*
X103850000Y-62210000D01*
X103850000Y-60960000D01*
X99350000Y-60960000D01*
X99350000Y-62210000D01*
G37*
D12*
%TO.C,J9*%
X15120000Y-53895000D02*
X15120000Y-62945000D01*
X15120000Y-62945000D02*
X35680000Y-62945000D01*
X35680000Y-62945000D02*
X35680000Y-53895000D01*
X17370000Y-53895000D02*
X15120000Y-53895000D01*
X18010001Y-53895002D02*
G75*
G03*
X17370000Y-53895000I-320001J-124999D01*
G01*
X25070000Y-53895000D02*
X18010000Y-53895000D01*
X25710001Y-53895002D02*
G75*
G03*
X25070000Y-53895000I-320001J-124999D01*
G01*
X32770000Y-53895000D02*
X25710000Y-53895000D01*
X33410001Y-53895002D02*
G75*
G03*
X32770000Y-53895000I-320001J-124999D01*
G01*
X33410000Y-53895000D02*
X35680000Y-53895000D01*
X19060000Y-60290000D02*
G75*
G03*
X19060000Y-60290000I-100000J0D01*
G01*
D13*
G36*
X23150000Y-62845000D02*
G01*
X27650000Y-62845000D01*
X27650000Y-61595000D01*
X23150000Y-61595000D01*
X23150000Y-62845000D01*
G37*
D11*
%TO.C,J5*%
X52010000Y-45145000D02*
X52010000Y-43815000D01*
X53340000Y-45145000D02*
X52010000Y-45145000D01*
X54610000Y-45145000D02*
X54610000Y-42485000D01*
X54610000Y-42485000D02*
X57210000Y-42485000D01*
X54610000Y-45145000D02*
X57210000Y-45145000D01*
X57210000Y-45145000D02*
X57210000Y-42485000D01*
D12*
%TO.C,J8*%
X115450000Y-53260000D02*
X115450000Y-62310000D01*
X115450000Y-62310000D02*
X136010000Y-62310000D01*
X136010000Y-62310000D02*
X136010000Y-53260000D01*
X117700000Y-53260000D02*
X115450000Y-53260000D01*
X118340001Y-53260002D02*
G75*
G03*
X117700000Y-53260000I-320001J-124999D01*
G01*
X125400000Y-53260000D02*
X118340000Y-53260000D01*
X126040001Y-53260002D02*
G75*
G03*
X125400000Y-53260000I-320001J-124999D01*
G01*
X133100000Y-53260000D02*
X126040000Y-53260000D01*
X133740001Y-53260002D02*
G75*
G03*
X133100000Y-53260000I-320001J-124999D01*
G01*
X133740000Y-53260000D02*
X136010000Y-53260000D01*
X119390000Y-59655000D02*
G75*
G03*
X119390000Y-59655000I-100000J0D01*
G01*
D13*
G36*
X123480000Y-62210000D02*
G01*
X127980000Y-62210000D01*
X127980000Y-60960000D01*
X123480000Y-60960000D01*
X123480000Y-62210000D01*
G37*
%TO.C,J10*%
G36*
X47280000Y-62845000D02*
G01*
X51780000Y-62845000D01*
X51780000Y-61595000D01*
X47280000Y-61595000D01*
X47280000Y-62845000D01*
G37*
D12*
X43190000Y-60290000D02*
G75*
G03*
X43190000Y-60290000I-100000J0D01*
G01*
X57540000Y-53895000D02*
X59810000Y-53895000D01*
X57540001Y-53895002D02*
G75*
G03*
X56900000Y-53895000I-320001J-124999D01*
G01*
X56900000Y-53895000D02*
X49840000Y-53895000D01*
X49840001Y-53895002D02*
G75*
G03*
X49200000Y-53895000I-320001J-124999D01*
G01*
X49200000Y-53895000D02*
X42140000Y-53895000D01*
X42140001Y-53895002D02*
G75*
G03*
X41500000Y-53895000I-320001J-124999D01*
G01*
X41500000Y-53895000D02*
X39250000Y-53895000D01*
X59810000Y-62945000D02*
X59810000Y-53895000D01*
X39250000Y-62945000D02*
X59810000Y-62945000D01*
X39250000Y-53895000D02*
X39250000Y-62945000D01*
D11*
%TO.C,C3*%
X86913767Y-65280000D02*
X86621233Y-65280000D01*
X86913767Y-64260000D02*
X86621233Y-64260000D01*
%TO.C,C4*%
X86913767Y-49655000D02*
X86621233Y-49655000D01*
X86913767Y-50675000D02*
X86621233Y-50675000D01*
%TO.C,Y1*%
X89430000Y-61760000D02*
X89430000Y-54510000D01*
X85830000Y-61760000D02*
X89430000Y-61760000D01*
X85830000Y-54510000D02*
X85830000Y-61760000D01*
%TO.C,C1*%
D10*
X47507142Y-48426666D02*
X47554761Y-48474285D01*
X47602380Y-48617142D01*
X47602380Y-48712380D01*
X47554761Y-48855238D01*
X47459523Y-48950476D01*
X47364285Y-48998095D01*
X47173809Y-49045714D01*
X47030952Y-49045714D01*
X46840476Y-48998095D01*
X46745238Y-48950476D01*
X46650000Y-48855238D01*
X46602380Y-48712380D01*
X46602380Y-48617142D01*
X46650000Y-48474285D01*
X46697619Y-48426666D01*
X47602380Y-47474285D02*
X47602380Y-48045714D01*
X47602380Y-47760000D02*
X46602380Y-47760000D01*
X46745238Y-47855238D01*
X46840476Y-47950476D01*
X46888095Y-48045714D01*
%TO.C,C2*%
X124977142Y-48426666D02*
X125024761Y-48474285D01*
X125072380Y-48617142D01*
X125072380Y-48712380D01*
X125024761Y-48855238D01*
X124929523Y-48950476D01*
X124834285Y-48998095D01*
X124643809Y-49045714D01*
X124500952Y-49045714D01*
X124310476Y-48998095D01*
X124215238Y-48950476D01*
X124120000Y-48855238D01*
X124072380Y-48712380D01*
X124072380Y-48617142D01*
X124120000Y-48474285D01*
X124167619Y-48426666D01*
X124167619Y-48045714D02*
X124120000Y-47998095D01*
X124072380Y-47902857D01*
X124072380Y-47664761D01*
X124120000Y-47569523D01*
X124167619Y-47521904D01*
X124262857Y-47474285D01*
X124358095Y-47474285D01*
X124500952Y-47521904D01*
X125072380Y-48093333D01*
X125072380Y-47474285D01*
%TO.C,J1*%
X135346666Y-69302380D02*
X135346666Y-70016666D01*
X135299047Y-70159523D01*
X135203809Y-70254761D01*
X135060952Y-70302380D01*
X134965714Y-70302380D01*
X136346666Y-70302380D02*
X135775238Y-70302380D01*
X136060952Y-70302380D02*
X136060952Y-69302380D01*
X135965714Y-69445238D01*
X135870476Y-69540476D01*
X135775238Y-69588095D01*
%TO.C,J2*%
X56606666Y-69302380D02*
X56606666Y-70016666D01*
X56559047Y-70159523D01*
X56463809Y-70254761D01*
X56320952Y-70302380D01*
X56225714Y-70302380D01*
X57035238Y-69397619D02*
X57082857Y-69350000D01*
X57178095Y-69302380D01*
X57416190Y-69302380D01*
X57511428Y-69350000D01*
X57559047Y-69397619D01*
X57606666Y-69492857D01*
X57606666Y-69588095D01*
X57559047Y-69730952D01*
X56987619Y-70302380D01*
X57606666Y-70302380D01*
%TO.C,J3*%
X83276666Y-43267380D02*
X83276666Y-43981666D01*
X83229047Y-44124523D01*
X83133809Y-44219761D01*
X82990952Y-44267380D01*
X82895714Y-44267380D01*
X83657619Y-43267380D02*
X84276666Y-43267380D01*
X83943333Y-43648333D01*
X84086190Y-43648333D01*
X84181428Y-43695952D01*
X84229047Y-43743571D01*
X84276666Y-43838809D01*
X84276666Y-44076904D01*
X84229047Y-44172142D01*
X84181428Y-44219761D01*
X84086190Y-44267380D01*
X83800476Y-44267380D01*
X83705238Y-44219761D01*
X83657619Y-44172142D01*
%TO.C,J4*%
X68456666Y-69302380D02*
X68456666Y-70016666D01*
X68409047Y-70159523D01*
X68313809Y-70254761D01*
X68170952Y-70302380D01*
X68075714Y-70302380D01*
X69361428Y-69635714D02*
X69361428Y-70302380D01*
X69123333Y-69254761D02*
X68885238Y-69969047D01*
X69504285Y-69969047D01*
%TO.C,J6*%
X92586666Y-43267380D02*
X92586666Y-43981666D01*
X92539047Y-44124523D01*
X92443809Y-44219761D01*
X92300952Y-44267380D01*
X92205714Y-44267380D01*
X93491428Y-43267380D02*
X93300952Y-43267380D01*
X93205714Y-43315000D01*
X93158095Y-43362619D01*
X93062857Y-43505476D01*
X93015238Y-43695952D01*
X93015238Y-44076904D01*
X93062857Y-44172142D01*
X93110476Y-44219761D01*
X93205714Y-44267380D01*
X93396190Y-44267380D01*
X93491428Y-44219761D01*
X93539047Y-44172142D01*
X93586666Y-44076904D01*
X93586666Y-43838809D01*
X93539047Y-43743571D01*
X93491428Y-43695952D01*
X93396190Y-43648333D01*
X93205714Y-43648333D01*
X93110476Y-43695952D01*
X93062857Y-43743571D01*
X93015238Y-43838809D01*
%TO.C,U1*%
X74478095Y-66077380D02*
X74478095Y-66886904D01*
X74525714Y-66982142D01*
X74573333Y-67029761D01*
X74668571Y-67077380D01*
X74859047Y-67077380D01*
X74954285Y-67029761D01*
X75001904Y-66982142D01*
X75049523Y-66886904D01*
X75049523Y-66077380D01*
X76049523Y-67077380D02*
X75478095Y-67077380D01*
X75763809Y-67077380D02*
X75763809Y-66077380D01*
X75668571Y-66220238D01*
X75573333Y-66315476D01*
X75478095Y-66363095D01*
%TO.C,U2*%
X112903095Y-41192380D02*
X112903095Y-42001904D01*
X112950714Y-42097142D01*
X112998333Y-42144761D01*
X113093571Y-42192380D01*
X113284047Y-42192380D01*
X113379285Y-42144761D01*
X113426904Y-42097142D01*
X113474523Y-42001904D01*
X113474523Y-41192380D01*
X113903095Y-41287619D02*
X113950714Y-41240000D01*
X114045952Y-41192380D01*
X114284047Y-41192380D01*
X114379285Y-41240000D01*
X114426904Y-41287619D01*
X114474523Y-41382857D01*
X114474523Y-41478095D01*
X114426904Y-41620952D01*
X113855476Y-42192380D01*
X114474523Y-42192380D01*
%TO.C,U3*%
X36703095Y-41192380D02*
X36703095Y-42001904D01*
X36750714Y-42097142D01*
X36798333Y-42144761D01*
X36893571Y-42192380D01*
X37084047Y-42192380D01*
X37179285Y-42144761D01*
X37226904Y-42097142D01*
X37274523Y-42001904D01*
X37274523Y-41192380D01*
X37655476Y-41192380D02*
X38274523Y-41192380D01*
X37941190Y-41573333D01*
X38084047Y-41573333D01*
X38179285Y-41620952D01*
X38226904Y-41668571D01*
X38274523Y-41763809D01*
X38274523Y-42001904D01*
X38226904Y-42097142D01*
X38179285Y-42144761D01*
X38084047Y-42192380D01*
X37798333Y-42192380D01*
X37703095Y-42144761D01*
X37655476Y-42097142D01*
%TO.C,J7*%
D14*
X95572120Y-52074838D02*
X95572120Y-52764266D01*
X95526158Y-52902152D01*
X95434234Y-52994076D01*
X95296348Y-53040038D01*
X95204425Y-53040038D01*
X95939815Y-52074838D02*
X96583282Y-52074838D01*
X96169625Y-53040038D01*
%TO.C,J9*%
X19372120Y-52328838D02*
X19372120Y-53018266D01*
X19326158Y-53156152D01*
X19234234Y-53248076D01*
X19096348Y-53294038D01*
X19004425Y-53294038D01*
X19877701Y-53294038D02*
X20061548Y-53294038D01*
X20153472Y-53248076D01*
X20199434Y-53202114D01*
X20291358Y-53064228D01*
X20337320Y-52880380D01*
X20337320Y-52512685D01*
X20291358Y-52420761D01*
X20245396Y-52374800D01*
X20153472Y-52328838D01*
X19969625Y-52328838D01*
X19877701Y-52374800D01*
X19831739Y-52420761D01*
X19785777Y-52512685D01*
X19785777Y-52742495D01*
X19831739Y-52834419D01*
X19877701Y-52880380D01*
X19969625Y-52926342D01*
X20153472Y-52926342D01*
X20245396Y-52880380D01*
X20291358Y-52834419D01*
X20337320Y-52742495D01*
%TO.C,J5*%
D10*
X50676666Y-43267380D02*
X50676666Y-43981666D01*
X50629047Y-44124523D01*
X50533809Y-44219761D01*
X50390952Y-44267380D01*
X50295714Y-44267380D01*
X51629047Y-43267380D02*
X51152857Y-43267380D01*
X51105238Y-43743571D01*
X51152857Y-43695952D01*
X51248095Y-43648333D01*
X51486190Y-43648333D01*
X51581428Y-43695952D01*
X51629047Y-43743571D01*
X51676666Y-43838809D01*
X51676666Y-44076904D01*
X51629047Y-44172142D01*
X51581428Y-44219761D01*
X51486190Y-44267380D01*
X51248095Y-44267380D01*
X51152857Y-44219761D01*
X51105238Y-44172142D01*
%TO.C,J8*%
D14*
X120210120Y-52074838D02*
X120210120Y-52764266D01*
X120164158Y-52902152D01*
X120072234Y-52994076D01*
X119934348Y-53040038D01*
X119842425Y-53040038D01*
X120807625Y-52488495D02*
X120715701Y-52442533D01*
X120669739Y-52396571D01*
X120623777Y-52304647D01*
X120623777Y-52258685D01*
X120669739Y-52166761D01*
X120715701Y-52120800D01*
X120807625Y-52074838D01*
X120991472Y-52074838D01*
X121083396Y-52120800D01*
X121129358Y-52166761D01*
X121175320Y-52258685D01*
X121175320Y-52304647D01*
X121129358Y-52396571D01*
X121083396Y-52442533D01*
X120991472Y-52488495D01*
X120807625Y-52488495D01*
X120715701Y-52534457D01*
X120669739Y-52580419D01*
X120623777Y-52672342D01*
X120623777Y-52856190D01*
X120669739Y-52948114D01*
X120715701Y-52994076D01*
X120807625Y-53040038D01*
X120991472Y-53040038D01*
X121083396Y-52994076D01*
X121129358Y-52948114D01*
X121175320Y-52856190D01*
X121175320Y-52672342D01*
X121129358Y-52580419D01*
X121083396Y-52534457D01*
X120991472Y-52488495D01*
%TO.C,J10*%
X45884882Y-52582838D02*
X45884882Y-53272266D01*
X45838920Y-53410152D01*
X45746996Y-53502076D01*
X45609110Y-53548038D01*
X45517187Y-53548038D01*
X46850082Y-53548038D02*
X46298539Y-53548038D01*
X46574310Y-53548038D02*
X46574310Y-52582838D01*
X46482387Y-52720723D01*
X46390463Y-52812647D01*
X46298539Y-52858609D01*
X47447587Y-52582838D02*
X47539510Y-52582838D01*
X47631434Y-52628800D01*
X47677396Y-52674761D01*
X47723358Y-52766685D01*
X47769320Y-52950533D01*
X47769320Y-53180342D01*
X47723358Y-53364190D01*
X47677396Y-53456114D01*
X47631434Y-53502076D01*
X47539510Y-53548038D01*
X47447587Y-53548038D01*
X47355663Y-53502076D01*
X47309701Y-53456114D01*
X47263739Y-53364190D01*
X47217777Y-53180342D01*
X47217777Y-52950533D01*
X47263739Y-52766685D01*
X47309701Y-52674761D01*
X47355663Y-52628800D01*
X47447587Y-52582838D01*
%TO.C,C3*%
D10*
X86600833Y-66557142D02*
X86553214Y-66604761D01*
X86410357Y-66652380D01*
X86315119Y-66652380D01*
X86172261Y-66604761D01*
X86077023Y-66509523D01*
X86029404Y-66414285D01*
X85981785Y-66223809D01*
X85981785Y-66080952D01*
X86029404Y-65890476D01*
X86077023Y-65795238D01*
X86172261Y-65700000D01*
X86315119Y-65652380D01*
X86410357Y-65652380D01*
X86553214Y-65700000D01*
X86600833Y-65747619D01*
X86934166Y-65652380D02*
X87553214Y-65652380D01*
X87219880Y-66033333D01*
X87362738Y-66033333D01*
X87457976Y-66080952D01*
X87505595Y-66128571D01*
X87553214Y-66223809D01*
X87553214Y-66461904D01*
X87505595Y-66557142D01*
X87457976Y-66604761D01*
X87362738Y-66652380D01*
X87077023Y-66652380D01*
X86981785Y-66604761D01*
X86934166Y-66557142D01*
%TO.C,C4*%
X86600833Y-51952142D02*
X86553214Y-51999761D01*
X86410357Y-52047380D01*
X86315119Y-52047380D01*
X86172261Y-51999761D01*
X86077023Y-51904523D01*
X86029404Y-51809285D01*
X85981785Y-51618809D01*
X85981785Y-51475952D01*
X86029404Y-51285476D01*
X86077023Y-51190238D01*
X86172261Y-51095000D01*
X86315119Y-51047380D01*
X86410357Y-51047380D01*
X86553214Y-51095000D01*
X86600833Y-51142619D01*
X87457976Y-51380714D02*
X87457976Y-52047380D01*
X87219880Y-50999761D02*
X86981785Y-51714047D01*
X87600833Y-51714047D01*
%TO.C,Y1*%
X84806190Y-57686190D02*
X85282380Y-57686190D01*
X84282380Y-58019523D02*
X84806190Y-57686190D01*
X84282380Y-57352857D01*
X85282380Y-56495714D02*
X85282380Y-57067142D01*
X85282380Y-56781428D02*
X84282380Y-56781428D01*
X84425238Y-56876666D01*
X84520476Y-56971904D01*
X84568095Y-57067142D01*
%TD*%
M02*
