%TF.GenerationSoftware,KiCad,Pcbnew,5.1.9+dfsg1-1*%
%TF.CreationDate,2021-08-18T14:47:46-04:00*%
%TF.ProjectId,custom_toothbrush_board,63757374-6f6d-45f7-946f-6f7468627275,rev?*%
%TF.SameCoordinates,Original*%
%TF.FileFunction,Soldermask,Top*%
%TF.FilePolarity,Negative*%
%FSLAX46Y46*%
G04 Gerber Fmt 4.6, Leading zero omitted, Abs format (unit mm)*
G04 Created by KiCad (PCBNEW 5.1.9+dfsg1-1) date 2021-08-18 14:47:46*
%MOMM*%
%LPD*%
G01*
G04 APERTURE LIST*
%ADD10R,1.700000X1.700000*%
%ADD11O,1.700000X1.700000*%
%ADD12R,1.750000X0.450000*%
%ADD13C,1.853200*%
%ADD14R,2.400000X3.500000*%
G04 APERTURE END LIST*
%TO.C,C1*%
G36*
G01*
X45482500Y-46860000D02*
X45957500Y-46860000D01*
G75*
G02*
X46195000Y-47097500I0J-237500D01*
G01*
X46195000Y-47697500D01*
G75*
G02*
X45957500Y-47935000I-237500J0D01*
G01*
X45482500Y-47935000D01*
G75*
G02*
X45245000Y-47697500I0J237500D01*
G01*
X45245000Y-47097500D01*
G75*
G02*
X45482500Y-46860000I237500J0D01*
G01*
G37*
G36*
G01*
X45482500Y-48585000D02*
X45957500Y-48585000D01*
G75*
G02*
X46195000Y-48822500I0J-237500D01*
G01*
X46195000Y-49422500D01*
G75*
G02*
X45957500Y-49660000I-237500J0D01*
G01*
X45482500Y-49660000D01*
G75*
G02*
X45245000Y-49422500I0J237500D01*
G01*
X45245000Y-48822500D01*
G75*
G02*
X45482500Y-48585000I237500J0D01*
G01*
G37*
%TD*%
%TO.C,C2*%
G36*
G01*
X122952500Y-48585000D02*
X123427500Y-48585000D01*
G75*
G02*
X123665000Y-48822500I0J-237500D01*
G01*
X123665000Y-49422500D01*
G75*
G02*
X123427500Y-49660000I-237500J0D01*
G01*
X122952500Y-49660000D01*
G75*
G02*
X122715000Y-49422500I0J237500D01*
G01*
X122715000Y-48822500D01*
G75*
G02*
X122952500Y-48585000I237500J0D01*
G01*
G37*
G36*
G01*
X122952500Y-46860000D02*
X123427500Y-46860000D01*
G75*
G02*
X123665000Y-47097500I0J-237500D01*
G01*
X123665000Y-47697500D01*
G75*
G02*
X123427500Y-47935000I-237500J0D01*
G01*
X122952500Y-47935000D01*
G75*
G02*
X122715000Y-47697500I0J237500D01*
G01*
X122715000Y-47097500D01*
G75*
G02*
X122952500Y-46860000I237500J0D01*
G01*
G37*
%TD*%
D10*
%TO.C,J1*%
X133350000Y-69850000D03*
D11*
X130810000Y-69850000D03*
X128270000Y-69850000D03*
X125730000Y-69850000D03*
X123190000Y-69850000D03*
X120650000Y-69850000D03*
X118110000Y-69850000D03*
X115570000Y-69850000D03*
X113030000Y-69850000D03*
X110490000Y-69850000D03*
X107950000Y-69850000D03*
X105410000Y-69850000D03*
X102870000Y-69850000D03*
X100330000Y-69850000D03*
X97790000Y-69850000D03*
%TD*%
%TO.C,J2*%
X19050000Y-69850000D03*
X21590000Y-69850000D03*
X24130000Y-69850000D03*
X26670000Y-69850000D03*
X29210000Y-69850000D03*
X31750000Y-69850000D03*
X34290000Y-69850000D03*
X36830000Y-69850000D03*
X39370000Y-69850000D03*
X41910000Y-69850000D03*
X44450000Y-69850000D03*
X46990000Y-69850000D03*
X49530000Y-69850000D03*
X52070000Y-69850000D03*
D10*
X54610000Y-69850000D03*
%TD*%
%TO.C,J3*%
X81280000Y-43815000D03*
D11*
X78740000Y-43815000D03*
X76200000Y-43815000D03*
X73660000Y-43815000D03*
X71120000Y-43815000D03*
X68580000Y-43815000D03*
%TD*%
D10*
%TO.C,J4*%
X71120000Y-69850000D03*
D11*
X73660000Y-69850000D03*
X76200000Y-69850000D03*
X78740000Y-69850000D03*
%TD*%
D10*
%TO.C,J6*%
X95250000Y-43815000D03*
D11*
X97790000Y-43815000D03*
%TD*%
%TO.C,U1*%
G36*
G01*
X83715000Y-63130000D02*
X83715000Y-63280000D01*
G75*
G02*
X83640000Y-63355000I-75000J0D01*
G01*
X82190000Y-63355000D01*
G75*
G02*
X82115000Y-63280000I0J75000D01*
G01*
X82115000Y-63130000D01*
G75*
G02*
X82190000Y-63055000I75000J0D01*
G01*
X83640000Y-63055000D01*
G75*
G02*
X83715000Y-63130000I0J-75000D01*
G01*
G37*
G36*
G01*
X83715000Y-62630000D02*
X83715000Y-62780000D01*
G75*
G02*
X83640000Y-62855000I-75000J0D01*
G01*
X82190000Y-62855000D01*
G75*
G02*
X82115000Y-62780000I0J75000D01*
G01*
X82115000Y-62630000D01*
G75*
G02*
X82190000Y-62555000I75000J0D01*
G01*
X83640000Y-62555000D01*
G75*
G02*
X83715000Y-62630000I0J-75000D01*
G01*
G37*
G36*
G01*
X83715000Y-62130000D02*
X83715000Y-62280000D01*
G75*
G02*
X83640000Y-62355000I-75000J0D01*
G01*
X82190000Y-62355000D01*
G75*
G02*
X82115000Y-62280000I0J75000D01*
G01*
X82115000Y-62130000D01*
G75*
G02*
X82190000Y-62055000I75000J0D01*
G01*
X83640000Y-62055000D01*
G75*
G02*
X83715000Y-62130000I0J-75000D01*
G01*
G37*
G36*
G01*
X83715000Y-61630000D02*
X83715000Y-61780000D01*
G75*
G02*
X83640000Y-61855000I-75000J0D01*
G01*
X82190000Y-61855000D01*
G75*
G02*
X82115000Y-61780000I0J75000D01*
G01*
X82115000Y-61630000D01*
G75*
G02*
X82190000Y-61555000I75000J0D01*
G01*
X83640000Y-61555000D01*
G75*
G02*
X83715000Y-61630000I0J-75000D01*
G01*
G37*
G36*
G01*
X83715000Y-61130000D02*
X83715000Y-61280000D01*
G75*
G02*
X83640000Y-61355000I-75000J0D01*
G01*
X82190000Y-61355000D01*
G75*
G02*
X82115000Y-61280000I0J75000D01*
G01*
X82115000Y-61130000D01*
G75*
G02*
X82190000Y-61055000I75000J0D01*
G01*
X83640000Y-61055000D01*
G75*
G02*
X83715000Y-61130000I0J-75000D01*
G01*
G37*
G36*
G01*
X83715000Y-60630000D02*
X83715000Y-60780000D01*
G75*
G02*
X83640000Y-60855000I-75000J0D01*
G01*
X82190000Y-60855000D01*
G75*
G02*
X82115000Y-60780000I0J75000D01*
G01*
X82115000Y-60630000D01*
G75*
G02*
X82190000Y-60555000I75000J0D01*
G01*
X83640000Y-60555000D01*
G75*
G02*
X83715000Y-60630000I0J-75000D01*
G01*
G37*
G36*
G01*
X83715000Y-60130000D02*
X83715000Y-60280000D01*
G75*
G02*
X83640000Y-60355000I-75000J0D01*
G01*
X82190000Y-60355000D01*
G75*
G02*
X82115000Y-60280000I0J75000D01*
G01*
X82115000Y-60130000D01*
G75*
G02*
X82190000Y-60055000I75000J0D01*
G01*
X83640000Y-60055000D01*
G75*
G02*
X83715000Y-60130000I0J-75000D01*
G01*
G37*
G36*
G01*
X83715000Y-59630000D02*
X83715000Y-59780000D01*
G75*
G02*
X83640000Y-59855000I-75000J0D01*
G01*
X82190000Y-59855000D01*
G75*
G02*
X82115000Y-59780000I0J75000D01*
G01*
X82115000Y-59630000D01*
G75*
G02*
X82190000Y-59555000I75000J0D01*
G01*
X83640000Y-59555000D01*
G75*
G02*
X83715000Y-59630000I0J-75000D01*
G01*
G37*
G36*
G01*
X83715000Y-59130000D02*
X83715000Y-59280000D01*
G75*
G02*
X83640000Y-59355000I-75000J0D01*
G01*
X82190000Y-59355000D01*
G75*
G02*
X82115000Y-59280000I0J75000D01*
G01*
X82115000Y-59130000D01*
G75*
G02*
X82190000Y-59055000I75000J0D01*
G01*
X83640000Y-59055000D01*
G75*
G02*
X83715000Y-59130000I0J-75000D01*
G01*
G37*
G36*
G01*
X83715000Y-58630000D02*
X83715000Y-58780000D01*
G75*
G02*
X83640000Y-58855000I-75000J0D01*
G01*
X82190000Y-58855000D01*
G75*
G02*
X82115000Y-58780000I0J75000D01*
G01*
X82115000Y-58630000D01*
G75*
G02*
X82190000Y-58555000I75000J0D01*
G01*
X83640000Y-58555000D01*
G75*
G02*
X83715000Y-58630000I0J-75000D01*
G01*
G37*
G36*
G01*
X83715000Y-58130000D02*
X83715000Y-58280000D01*
G75*
G02*
X83640000Y-58355000I-75000J0D01*
G01*
X82190000Y-58355000D01*
G75*
G02*
X82115000Y-58280000I0J75000D01*
G01*
X82115000Y-58130000D01*
G75*
G02*
X82190000Y-58055000I75000J0D01*
G01*
X83640000Y-58055000D01*
G75*
G02*
X83715000Y-58130000I0J-75000D01*
G01*
G37*
G36*
G01*
X83715000Y-57630000D02*
X83715000Y-57780000D01*
G75*
G02*
X83640000Y-57855000I-75000J0D01*
G01*
X82190000Y-57855000D01*
G75*
G02*
X82115000Y-57780000I0J75000D01*
G01*
X82115000Y-57630000D01*
G75*
G02*
X82190000Y-57555000I75000J0D01*
G01*
X83640000Y-57555000D01*
G75*
G02*
X83715000Y-57630000I0J-75000D01*
G01*
G37*
G36*
G01*
X83715000Y-57130000D02*
X83715000Y-57280000D01*
G75*
G02*
X83640000Y-57355000I-75000J0D01*
G01*
X82190000Y-57355000D01*
G75*
G02*
X82115000Y-57280000I0J75000D01*
G01*
X82115000Y-57130000D01*
G75*
G02*
X82190000Y-57055000I75000J0D01*
G01*
X83640000Y-57055000D01*
G75*
G02*
X83715000Y-57130000I0J-75000D01*
G01*
G37*
G36*
G01*
X83715000Y-56630000D02*
X83715000Y-56780000D01*
G75*
G02*
X83640000Y-56855000I-75000J0D01*
G01*
X82190000Y-56855000D01*
G75*
G02*
X82115000Y-56780000I0J75000D01*
G01*
X82115000Y-56630000D01*
G75*
G02*
X82190000Y-56555000I75000J0D01*
G01*
X83640000Y-56555000D01*
G75*
G02*
X83715000Y-56630000I0J-75000D01*
G01*
G37*
G36*
G01*
X83715000Y-56130000D02*
X83715000Y-56280000D01*
G75*
G02*
X83640000Y-56355000I-75000J0D01*
G01*
X82190000Y-56355000D01*
G75*
G02*
X82115000Y-56280000I0J75000D01*
G01*
X82115000Y-56130000D01*
G75*
G02*
X82190000Y-56055000I75000J0D01*
G01*
X83640000Y-56055000D01*
G75*
G02*
X83715000Y-56130000I0J-75000D01*
G01*
G37*
G36*
G01*
X83715000Y-55630000D02*
X83715000Y-55780000D01*
G75*
G02*
X83640000Y-55855000I-75000J0D01*
G01*
X82190000Y-55855000D01*
G75*
G02*
X82115000Y-55780000I0J75000D01*
G01*
X82115000Y-55630000D01*
G75*
G02*
X82190000Y-55555000I75000J0D01*
G01*
X83640000Y-55555000D01*
G75*
G02*
X83715000Y-55630000I0J-75000D01*
G01*
G37*
G36*
G01*
X83715000Y-55130000D02*
X83715000Y-55280000D01*
G75*
G02*
X83640000Y-55355000I-75000J0D01*
G01*
X82190000Y-55355000D01*
G75*
G02*
X82115000Y-55280000I0J75000D01*
G01*
X82115000Y-55130000D01*
G75*
G02*
X82190000Y-55055000I75000J0D01*
G01*
X83640000Y-55055000D01*
G75*
G02*
X83715000Y-55130000I0J-75000D01*
G01*
G37*
G36*
G01*
X83715000Y-54630000D02*
X83715000Y-54780000D01*
G75*
G02*
X83640000Y-54855000I-75000J0D01*
G01*
X82190000Y-54855000D01*
G75*
G02*
X82115000Y-54780000I0J75000D01*
G01*
X82115000Y-54630000D01*
G75*
G02*
X82190000Y-54555000I75000J0D01*
G01*
X83640000Y-54555000D01*
G75*
G02*
X83715000Y-54630000I0J-75000D01*
G01*
G37*
G36*
G01*
X83715000Y-54130000D02*
X83715000Y-54280000D01*
G75*
G02*
X83640000Y-54355000I-75000J0D01*
G01*
X82190000Y-54355000D01*
G75*
G02*
X82115000Y-54280000I0J75000D01*
G01*
X82115000Y-54130000D01*
G75*
G02*
X82190000Y-54055000I75000J0D01*
G01*
X83640000Y-54055000D01*
G75*
G02*
X83715000Y-54130000I0J-75000D01*
G01*
G37*
G36*
G01*
X83715000Y-53630000D02*
X83715000Y-53780000D01*
G75*
G02*
X83640000Y-53855000I-75000J0D01*
G01*
X82190000Y-53855000D01*
G75*
G02*
X82115000Y-53780000I0J75000D01*
G01*
X82115000Y-53630000D01*
G75*
G02*
X82190000Y-53555000I75000J0D01*
G01*
X83640000Y-53555000D01*
G75*
G02*
X83715000Y-53630000I0J-75000D01*
G01*
G37*
G36*
G01*
X83715000Y-53130000D02*
X83715000Y-53280000D01*
G75*
G02*
X83640000Y-53355000I-75000J0D01*
G01*
X82190000Y-53355000D01*
G75*
G02*
X82115000Y-53280000I0J75000D01*
G01*
X82115000Y-53130000D01*
G75*
G02*
X82190000Y-53055000I75000J0D01*
G01*
X83640000Y-53055000D01*
G75*
G02*
X83715000Y-53130000I0J-75000D01*
G01*
G37*
G36*
G01*
X83715000Y-52630000D02*
X83715000Y-52780000D01*
G75*
G02*
X83640000Y-52855000I-75000J0D01*
G01*
X82190000Y-52855000D01*
G75*
G02*
X82115000Y-52780000I0J75000D01*
G01*
X82115000Y-52630000D01*
G75*
G02*
X82190000Y-52555000I75000J0D01*
G01*
X83640000Y-52555000D01*
G75*
G02*
X83715000Y-52630000I0J-75000D01*
G01*
G37*
G36*
G01*
X83715000Y-52130000D02*
X83715000Y-52280000D01*
G75*
G02*
X83640000Y-52355000I-75000J0D01*
G01*
X82190000Y-52355000D01*
G75*
G02*
X82115000Y-52280000I0J75000D01*
G01*
X82115000Y-52130000D01*
G75*
G02*
X82190000Y-52055000I75000J0D01*
G01*
X83640000Y-52055000D01*
G75*
G02*
X83715000Y-52130000I0J-75000D01*
G01*
G37*
G36*
G01*
X83715000Y-51630000D02*
X83715000Y-51780000D01*
G75*
G02*
X83640000Y-51855000I-75000J0D01*
G01*
X82190000Y-51855000D01*
G75*
G02*
X82115000Y-51780000I0J75000D01*
G01*
X82115000Y-51630000D01*
G75*
G02*
X82190000Y-51555000I75000J0D01*
G01*
X83640000Y-51555000D01*
G75*
G02*
X83715000Y-51630000I0J-75000D01*
G01*
G37*
G36*
G01*
X83715000Y-51130000D02*
X83715000Y-51280000D01*
G75*
G02*
X83640000Y-51355000I-75000J0D01*
G01*
X82190000Y-51355000D01*
G75*
G02*
X82115000Y-51280000I0J75000D01*
G01*
X82115000Y-51130000D01*
G75*
G02*
X82190000Y-51055000I75000J0D01*
G01*
X83640000Y-51055000D01*
G75*
G02*
X83715000Y-51130000I0J-75000D01*
G01*
G37*
G36*
G01*
X81390000Y-48805000D02*
X81390000Y-50255000D01*
G75*
G02*
X81315000Y-50330000I-75000J0D01*
G01*
X81165000Y-50330000D01*
G75*
G02*
X81090000Y-50255000I0J75000D01*
G01*
X81090000Y-48805000D01*
G75*
G02*
X81165000Y-48730000I75000J0D01*
G01*
X81315000Y-48730000D01*
G75*
G02*
X81390000Y-48805000I0J-75000D01*
G01*
G37*
G36*
G01*
X80890000Y-48805000D02*
X80890000Y-50255000D01*
G75*
G02*
X80815000Y-50330000I-75000J0D01*
G01*
X80665000Y-50330000D01*
G75*
G02*
X80590000Y-50255000I0J75000D01*
G01*
X80590000Y-48805000D01*
G75*
G02*
X80665000Y-48730000I75000J0D01*
G01*
X80815000Y-48730000D01*
G75*
G02*
X80890000Y-48805000I0J-75000D01*
G01*
G37*
G36*
G01*
X80390000Y-48805000D02*
X80390000Y-50255000D01*
G75*
G02*
X80315000Y-50330000I-75000J0D01*
G01*
X80165000Y-50330000D01*
G75*
G02*
X80090000Y-50255000I0J75000D01*
G01*
X80090000Y-48805000D01*
G75*
G02*
X80165000Y-48730000I75000J0D01*
G01*
X80315000Y-48730000D01*
G75*
G02*
X80390000Y-48805000I0J-75000D01*
G01*
G37*
G36*
G01*
X79890000Y-48805000D02*
X79890000Y-50255000D01*
G75*
G02*
X79815000Y-50330000I-75000J0D01*
G01*
X79665000Y-50330000D01*
G75*
G02*
X79590000Y-50255000I0J75000D01*
G01*
X79590000Y-48805000D01*
G75*
G02*
X79665000Y-48730000I75000J0D01*
G01*
X79815000Y-48730000D01*
G75*
G02*
X79890000Y-48805000I0J-75000D01*
G01*
G37*
G36*
G01*
X79390000Y-48805000D02*
X79390000Y-50255000D01*
G75*
G02*
X79315000Y-50330000I-75000J0D01*
G01*
X79165000Y-50330000D01*
G75*
G02*
X79090000Y-50255000I0J75000D01*
G01*
X79090000Y-48805000D01*
G75*
G02*
X79165000Y-48730000I75000J0D01*
G01*
X79315000Y-48730000D01*
G75*
G02*
X79390000Y-48805000I0J-75000D01*
G01*
G37*
G36*
G01*
X78890000Y-48805000D02*
X78890000Y-50255000D01*
G75*
G02*
X78815000Y-50330000I-75000J0D01*
G01*
X78665000Y-50330000D01*
G75*
G02*
X78590000Y-50255000I0J75000D01*
G01*
X78590000Y-48805000D01*
G75*
G02*
X78665000Y-48730000I75000J0D01*
G01*
X78815000Y-48730000D01*
G75*
G02*
X78890000Y-48805000I0J-75000D01*
G01*
G37*
G36*
G01*
X78390000Y-48805000D02*
X78390000Y-50255000D01*
G75*
G02*
X78315000Y-50330000I-75000J0D01*
G01*
X78165000Y-50330000D01*
G75*
G02*
X78090000Y-50255000I0J75000D01*
G01*
X78090000Y-48805000D01*
G75*
G02*
X78165000Y-48730000I75000J0D01*
G01*
X78315000Y-48730000D01*
G75*
G02*
X78390000Y-48805000I0J-75000D01*
G01*
G37*
G36*
G01*
X77890000Y-48805000D02*
X77890000Y-50255000D01*
G75*
G02*
X77815000Y-50330000I-75000J0D01*
G01*
X77665000Y-50330000D01*
G75*
G02*
X77590000Y-50255000I0J75000D01*
G01*
X77590000Y-48805000D01*
G75*
G02*
X77665000Y-48730000I75000J0D01*
G01*
X77815000Y-48730000D01*
G75*
G02*
X77890000Y-48805000I0J-75000D01*
G01*
G37*
G36*
G01*
X77390000Y-48805000D02*
X77390000Y-50255000D01*
G75*
G02*
X77315000Y-50330000I-75000J0D01*
G01*
X77165000Y-50330000D01*
G75*
G02*
X77090000Y-50255000I0J75000D01*
G01*
X77090000Y-48805000D01*
G75*
G02*
X77165000Y-48730000I75000J0D01*
G01*
X77315000Y-48730000D01*
G75*
G02*
X77390000Y-48805000I0J-75000D01*
G01*
G37*
G36*
G01*
X76890000Y-48805000D02*
X76890000Y-50255000D01*
G75*
G02*
X76815000Y-50330000I-75000J0D01*
G01*
X76665000Y-50330000D01*
G75*
G02*
X76590000Y-50255000I0J75000D01*
G01*
X76590000Y-48805000D01*
G75*
G02*
X76665000Y-48730000I75000J0D01*
G01*
X76815000Y-48730000D01*
G75*
G02*
X76890000Y-48805000I0J-75000D01*
G01*
G37*
G36*
G01*
X76390000Y-48805000D02*
X76390000Y-50255000D01*
G75*
G02*
X76315000Y-50330000I-75000J0D01*
G01*
X76165000Y-50330000D01*
G75*
G02*
X76090000Y-50255000I0J75000D01*
G01*
X76090000Y-48805000D01*
G75*
G02*
X76165000Y-48730000I75000J0D01*
G01*
X76315000Y-48730000D01*
G75*
G02*
X76390000Y-48805000I0J-75000D01*
G01*
G37*
G36*
G01*
X75890000Y-48805000D02*
X75890000Y-50255000D01*
G75*
G02*
X75815000Y-50330000I-75000J0D01*
G01*
X75665000Y-50330000D01*
G75*
G02*
X75590000Y-50255000I0J75000D01*
G01*
X75590000Y-48805000D01*
G75*
G02*
X75665000Y-48730000I75000J0D01*
G01*
X75815000Y-48730000D01*
G75*
G02*
X75890000Y-48805000I0J-75000D01*
G01*
G37*
G36*
G01*
X75390000Y-48805000D02*
X75390000Y-50255000D01*
G75*
G02*
X75315000Y-50330000I-75000J0D01*
G01*
X75165000Y-50330000D01*
G75*
G02*
X75090000Y-50255000I0J75000D01*
G01*
X75090000Y-48805000D01*
G75*
G02*
X75165000Y-48730000I75000J0D01*
G01*
X75315000Y-48730000D01*
G75*
G02*
X75390000Y-48805000I0J-75000D01*
G01*
G37*
G36*
G01*
X74890000Y-48805000D02*
X74890000Y-50255000D01*
G75*
G02*
X74815000Y-50330000I-75000J0D01*
G01*
X74665000Y-50330000D01*
G75*
G02*
X74590000Y-50255000I0J75000D01*
G01*
X74590000Y-48805000D01*
G75*
G02*
X74665000Y-48730000I75000J0D01*
G01*
X74815000Y-48730000D01*
G75*
G02*
X74890000Y-48805000I0J-75000D01*
G01*
G37*
G36*
G01*
X74390000Y-48805000D02*
X74390000Y-50255000D01*
G75*
G02*
X74315000Y-50330000I-75000J0D01*
G01*
X74165000Y-50330000D01*
G75*
G02*
X74090000Y-50255000I0J75000D01*
G01*
X74090000Y-48805000D01*
G75*
G02*
X74165000Y-48730000I75000J0D01*
G01*
X74315000Y-48730000D01*
G75*
G02*
X74390000Y-48805000I0J-75000D01*
G01*
G37*
G36*
G01*
X73890000Y-48805000D02*
X73890000Y-50255000D01*
G75*
G02*
X73815000Y-50330000I-75000J0D01*
G01*
X73665000Y-50330000D01*
G75*
G02*
X73590000Y-50255000I0J75000D01*
G01*
X73590000Y-48805000D01*
G75*
G02*
X73665000Y-48730000I75000J0D01*
G01*
X73815000Y-48730000D01*
G75*
G02*
X73890000Y-48805000I0J-75000D01*
G01*
G37*
G36*
G01*
X73390000Y-48805000D02*
X73390000Y-50255000D01*
G75*
G02*
X73315000Y-50330000I-75000J0D01*
G01*
X73165000Y-50330000D01*
G75*
G02*
X73090000Y-50255000I0J75000D01*
G01*
X73090000Y-48805000D01*
G75*
G02*
X73165000Y-48730000I75000J0D01*
G01*
X73315000Y-48730000D01*
G75*
G02*
X73390000Y-48805000I0J-75000D01*
G01*
G37*
G36*
G01*
X72890000Y-48805000D02*
X72890000Y-50255000D01*
G75*
G02*
X72815000Y-50330000I-75000J0D01*
G01*
X72665000Y-50330000D01*
G75*
G02*
X72590000Y-50255000I0J75000D01*
G01*
X72590000Y-48805000D01*
G75*
G02*
X72665000Y-48730000I75000J0D01*
G01*
X72815000Y-48730000D01*
G75*
G02*
X72890000Y-48805000I0J-75000D01*
G01*
G37*
G36*
G01*
X72390000Y-48805000D02*
X72390000Y-50255000D01*
G75*
G02*
X72315000Y-50330000I-75000J0D01*
G01*
X72165000Y-50330000D01*
G75*
G02*
X72090000Y-50255000I0J75000D01*
G01*
X72090000Y-48805000D01*
G75*
G02*
X72165000Y-48730000I75000J0D01*
G01*
X72315000Y-48730000D01*
G75*
G02*
X72390000Y-48805000I0J-75000D01*
G01*
G37*
G36*
G01*
X71890000Y-48805000D02*
X71890000Y-50255000D01*
G75*
G02*
X71815000Y-50330000I-75000J0D01*
G01*
X71665000Y-50330000D01*
G75*
G02*
X71590000Y-50255000I0J75000D01*
G01*
X71590000Y-48805000D01*
G75*
G02*
X71665000Y-48730000I75000J0D01*
G01*
X71815000Y-48730000D01*
G75*
G02*
X71890000Y-48805000I0J-75000D01*
G01*
G37*
G36*
G01*
X71390000Y-48805000D02*
X71390000Y-50255000D01*
G75*
G02*
X71315000Y-50330000I-75000J0D01*
G01*
X71165000Y-50330000D01*
G75*
G02*
X71090000Y-50255000I0J75000D01*
G01*
X71090000Y-48805000D01*
G75*
G02*
X71165000Y-48730000I75000J0D01*
G01*
X71315000Y-48730000D01*
G75*
G02*
X71390000Y-48805000I0J-75000D01*
G01*
G37*
G36*
G01*
X70890000Y-48805000D02*
X70890000Y-50255000D01*
G75*
G02*
X70815000Y-50330000I-75000J0D01*
G01*
X70665000Y-50330000D01*
G75*
G02*
X70590000Y-50255000I0J75000D01*
G01*
X70590000Y-48805000D01*
G75*
G02*
X70665000Y-48730000I75000J0D01*
G01*
X70815000Y-48730000D01*
G75*
G02*
X70890000Y-48805000I0J-75000D01*
G01*
G37*
G36*
G01*
X70390000Y-48805000D02*
X70390000Y-50255000D01*
G75*
G02*
X70315000Y-50330000I-75000J0D01*
G01*
X70165000Y-50330000D01*
G75*
G02*
X70090000Y-50255000I0J75000D01*
G01*
X70090000Y-48805000D01*
G75*
G02*
X70165000Y-48730000I75000J0D01*
G01*
X70315000Y-48730000D01*
G75*
G02*
X70390000Y-48805000I0J-75000D01*
G01*
G37*
G36*
G01*
X69890000Y-48805000D02*
X69890000Y-50255000D01*
G75*
G02*
X69815000Y-50330000I-75000J0D01*
G01*
X69665000Y-50330000D01*
G75*
G02*
X69590000Y-50255000I0J75000D01*
G01*
X69590000Y-48805000D01*
G75*
G02*
X69665000Y-48730000I75000J0D01*
G01*
X69815000Y-48730000D01*
G75*
G02*
X69890000Y-48805000I0J-75000D01*
G01*
G37*
G36*
G01*
X69390000Y-48805000D02*
X69390000Y-50255000D01*
G75*
G02*
X69315000Y-50330000I-75000J0D01*
G01*
X69165000Y-50330000D01*
G75*
G02*
X69090000Y-50255000I0J75000D01*
G01*
X69090000Y-48805000D01*
G75*
G02*
X69165000Y-48730000I75000J0D01*
G01*
X69315000Y-48730000D01*
G75*
G02*
X69390000Y-48805000I0J-75000D01*
G01*
G37*
G36*
G01*
X68365000Y-51130000D02*
X68365000Y-51280000D01*
G75*
G02*
X68290000Y-51355000I-75000J0D01*
G01*
X66840000Y-51355000D01*
G75*
G02*
X66765000Y-51280000I0J75000D01*
G01*
X66765000Y-51130000D01*
G75*
G02*
X66840000Y-51055000I75000J0D01*
G01*
X68290000Y-51055000D01*
G75*
G02*
X68365000Y-51130000I0J-75000D01*
G01*
G37*
G36*
G01*
X68365000Y-51630000D02*
X68365000Y-51780000D01*
G75*
G02*
X68290000Y-51855000I-75000J0D01*
G01*
X66840000Y-51855000D01*
G75*
G02*
X66765000Y-51780000I0J75000D01*
G01*
X66765000Y-51630000D01*
G75*
G02*
X66840000Y-51555000I75000J0D01*
G01*
X68290000Y-51555000D01*
G75*
G02*
X68365000Y-51630000I0J-75000D01*
G01*
G37*
G36*
G01*
X68365000Y-52130000D02*
X68365000Y-52280000D01*
G75*
G02*
X68290000Y-52355000I-75000J0D01*
G01*
X66840000Y-52355000D01*
G75*
G02*
X66765000Y-52280000I0J75000D01*
G01*
X66765000Y-52130000D01*
G75*
G02*
X66840000Y-52055000I75000J0D01*
G01*
X68290000Y-52055000D01*
G75*
G02*
X68365000Y-52130000I0J-75000D01*
G01*
G37*
G36*
G01*
X68365000Y-52630000D02*
X68365000Y-52780000D01*
G75*
G02*
X68290000Y-52855000I-75000J0D01*
G01*
X66840000Y-52855000D01*
G75*
G02*
X66765000Y-52780000I0J75000D01*
G01*
X66765000Y-52630000D01*
G75*
G02*
X66840000Y-52555000I75000J0D01*
G01*
X68290000Y-52555000D01*
G75*
G02*
X68365000Y-52630000I0J-75000D01*
G01*
G37*
G36*
G01*
X68365000Y-53130000D02*
X68365000Y-53280000D01*
G75*
G02*
X68290000Y-53355000I-75000J0D01*
G01*
X66840000Y-53355000D01*
G75*
G02*
X66765000Y-53280000I0J75000D01*
G01*
X66765000Y-53130000D01*
G75*
G02*
X66840000Y-53055000I75000J0D01*
G01*
X68290000Y-53055000D01*
G75*
G02*
X68365000Y-53130000I0J-75000D01*
G01*
G37*
G36*
G01*
X68365000Y-53630000D02*
X68365000Y-53780000D01*
G75*
G02*
X68290000Y-53855000I-75000J0D01*
G01*
X66840000Y-53855000D01*
G75*
G02*
X66765000Y-53780000I0J75000D01*
G01*
X66765000Y-53630000D01*
G75*
G02*
X66840000Y-53555000I75000J0D01*
G01*
X68290000Y-53555000D01*
G75*
G02*
X68365000Y-53630000I0J-75000D01*
G01*
G37*
G36*
G01*
X68365000Y-54130000D02*
X68365000Y-54280000D01*
G75*
G02*
X68290000Y-54355000I-75000J0D01*
G01*
X66840000Y-54355000D01*
G75*
G02*
X66765000Y-54280000I0J75000D01*
G01*
X66765000Y-54130000D01*
G75*
G02*
X66840000Y-54055000I75000J0D01*
G01*
X68290000Y-54055000D01*
G75*
G02*
X68365000Y-54130000I0J-75000D01*
G01*
G37*
G36*
G01*
X68365000Y-54630000D02*
X68365000Y-54780000D01*
G75*
G02*
X68290000Y-54855000I-75000J0D01*
G01*
X66840000Y-54855000D01*
G75*
G02*
X66765000Y-54780000I0J75000D01*
G01*
X66765000Y-54630000D01*
G75*
G02*
X66840000Y-54555000I75000J0D01*
G01*
X68290000Y-54555000D01*
G75*
G02*
X68365000Y-54630000I0J-75000D01*
G01*
G37*
G36*
G01*
X68365000Y-55130000D02*
X68365000Y-55280000D01*
G75*
G02*
X68290000Y-55355000I-75000J0D01*
G01*
X66840000Y-55355000D01*
G75*
G02*
X66765000Y-55280000I0J75000D01*
G01*
X66765000Y-55130000D01*
G75*
G02*
X66840000Y-55055000I75000J0D01*
G01*
X68290000Y-55055000D01*
G75*
G02*
X68365000Y-55130000I0J-75000D01*
G01*
G37*
G36*
G01*
X68365000Y-55630000D02*
X68365000Y-55780000D01*
G75*
G02*
X68290000Y-55855000I-75000J0D01*
G01*
X66840000Y-55855000D01*
G75*
G02*
X66765000Y-55780000I0J75000D01*
G01*
X66765000Y-55630000D01*
G75*
G02*
X66840000Y-55555000I75000J0D01*
G01*
X68290000Y-55555000D01*
G75*
G02*
X68365000Y-55630000I0J-75000D01*
G01*
G37*
G36*
G01*
X68365000Y-56130000D02*
X68365000Y-56280000D01*
G75*
G02*
X68290000Y-56355000I-75000J0D01*
G01*
X66840000Y-56355000D01*
G75*
G02*
X66765000Y-56280000I0J75000D01*
G01*
X66765000Y-56130000D01*
G75*
G02*
X66840000Y-56055000I75000J0D01*
G01*
X68290000Y-56055000D01*
G75*
G02*
X68365000Y-56130000I0J-75000D01*
G01*
G37*
G36*
G01*
X68365000Y-56630000D02*
X68365000Y-56780000D01*
G75*
G02*
X68290000Y-56855000I-75000J0D01*
G01*
X66840000Y-56855000D01*
G75*
G02*
X66765000Y-56780000I0J75000D01*
G01*
X66765000Y-56630000D01*
G75*
G02*
X66840000Y-56555000I75000J0D01*
G01*
X68290000Y-56555000D01*
G75*
G02*
X68365000Y-56630000I0J-75000D01*
G01*
G37*
G36*
G01*
X68365000Y-57130000D02*
X68365000Y-57280000D01*
G75*
G02*
X68290000Y-57355000I-75000J0D01*
G01*
X66840000Y-57355000D01*
G75*
G02*
X66765000Y-57280000I0J75000D01*
G01*
X66765000Y-57130000D01*
G75*
G02*
X66840000Y-57055000I75000J0D01*
G01*
X68290000Y-57055000D01*
G75*
G02*
X68365000Y-57130000I0J-75000D01*
G01*
G37*
G36*
G01*
X68365000Y-57630000D02*
X68365000Y-57780000D01*
G75*
G02*
X68290000Y-57855000I-75000J0D01*
G01*
X66840000Y-57855000D01*
G75*
G02*
X66765000Y-57780000I0J75000D01*
G01*
X66765000Y-57630000D01*
G75*
G02*
X66840000Y-57555000I75000J0D01*
G01*
X68290000Y-57555000D01*
G75*
G02*
X68365000Y-57630000I0J-75000D01*
G01*
G37*
G36*
G01*
X68365000Y-58130000D02*
X68365000Y-58280000D01*
G75*
G02*
X68290000Y-58355000I-75000J0D01*
G01*
X66840000Y-58355000D01*
G75*
G02*
X66765000Y-58280000I0J75000D01*
G01*
X66765000Y-58130000D01*
G75*
G02*
X66840000Y-58055000I75000J0D01*
G01*
X68290000Y-58055000D01*
G75*
G02*
X68365000Y-58130000I0J-75000D01*
G01*
G37*
G36*
G01*
X68365000Y-58630000D02*
X68365000Y-58780000D01*
G75*
G02*
X68290000Y-58855000I-75000J0D01*
G01*
X66840000Y-58855000D01*
G75*
G02*
X66765000Y-58780000I0J75000D01*
G01*
X66765000Y-58630000D01*
G75*
G02*
X66840000Y-58555000I75000J0D01*
G01*
X68290000Y-58555000D01*
G75*
G02*
X68365000Y-58630000I0J-75000D01*
G01*
G37*
G36*
G01*
X68365000Y-59130000D02*
X68365000Y-59280000D01*
G75*
G02*
X68290000Y-59355000I-75000J0D01*
G01*
X66840000Y-59355000D01*
G75*
G02*
X66765000Y-59280000I0J75000D01*
G01*
X66765000Y-59130000D01*
G75*
G02*
X66840000Y-59055000I75000J0D01*
G01*
X68290000Y-59055000D01*
G75*
G02*
X68365000Y-59130000I0J-75000D01*
G01*
G37*
G36*
G01*
X68365000Y-59630000D02*
X68365000Y-59780000D01*
G75*
G02*
X68290000Y-59855000I-75000J0D01*
G01*
X66840000Y-59855000D01*
G75*
G02*
X66765000Y-59780000I0J75000D01*
G01*
X66765000Y-59630000D01*
G75*
G02*
X66840000Y-59555000I75000J0D01*
G01*
X68290000Y-59555000D01*
G75*
G02*
X68365000Y-59630000I0J-75000D01*
G01*
G37*
G36*
G01*
X68365000Y-60130000D02*
X68365000Y-60280000D01*
G75*
G02*
X68290000Y-60355000I-75000J0D01*
G01*
X66840000Y-60355000D01*
G75*
G02*
X66765000Y-60280000I0J75000D01*
G01*
X66765000Y-60130000D01*
G75*
G02*
X66840000Y-60055000I75000J0D01*
G01*
X68290000Y-60055000D01*
G75*
G02*
X68365000Y-60130000I0J-75000D01*
G01*
G37*
G36*
G01*
X68365000Y-60630000D02*
X68365000Y-60780000D01*
G75*
G02*
X68290000Y-60855000I-75000J0D01*
G01*
X66840000Y-60855000D01*
G75*
G02*
X66765000Y-60780000I0J75000D01*
G01*
X66765000Y-60630000D01*
G75*
G02*
X66840000Y-60555000I75000J0D01*
G01*
X68290000Y-60555000D01*
G75*
G02*
X68365000Y-60630000I0J-75000D01*
G01*
G37*
G36*
G01*
X68365000Y-61130000D02*
X68365000Y-61280000D01*
G75*
G02*
X68290000Y-61355000I-75000J0D01*
G01*
X66840000Y-61355000D01*
G75*
G02*
X66765000Y-61280000I0J75000D01*
G01*
X66765000Y-61130000D01*
G75*
G02*
X66840000Y-61055000I75000J0D01*
G01*
X68290000Y-61055000D01*
G75*
G02*
X68365000Y-61130000I0J-75000D01*
G01*
G37*
G36*
G01*
X68365000Y-61630000D02*
X68365000Y-61780000D01*
G75*
G02*
X68290000Y-61855000I-75000J0D01*
G01*
X66840000Y-61855000D01*
G75*
G02*
X66765000Y-61780000I0J75000D01*
G01*
X66765000Y-61630000D01*
G75*
G02*
X66840000Y-61555000I75000J0D01*
G01*
X68290000Y-61555000D01*
G75*
G02*
X68365000Y-61630000I0J-75000D01*
G01*
G37*
G36*
G01*
X68365000Y-62130000D02*
X68365000Y-62280000D01*
G75*
G02*
X68290000Y-62355000I-75000J0D01*
G01*
X66840000Y-62355000D01*
G75*
G02*
X66765000Y-62280000I0J75000D01*
G01*
X66765000Y-62130000D01*
G75*
G02*
X66840000Y-62055000I75000J0D01*
G01*
X68290000Y-62055000D01*
G75*
G02*
X68365000Y-62130000I0J-75000D01*
G01*
G37*
G36*
G01*
X68365000Y-62630000D02*
X68365000Y-62780000D01*
G75*
G02*
X68290000Y-62855000I-75000J0D01*
G01*
X66840000Y-62855000D01*
G75*
G02*
X66765000Y-62780000I0J75000D01*
G01*
X66765000Y-62630000D01*
G75*
G02*
X66840000Y-62555000I75000J0D01*
G01*
X68290000Y-62555000D01*
G75*
G02*
X68365000Y-62630000I0J-75000D01*
G01*
G37*
G36*
G01*
X68365000Y-63130000D02*
X68365000Y-63280000D01*
G75*
G02*
X68290000Y-63355000I-75000J0D01*
G01*
X66840000Y-63355000D01*
G75*
G02*
X66765000Y-63280000I0J75000D01*
G01*
X66765000Y-63130000D01*
G75*
G02*
X66840000Y-63055000I75000J0D01*
G01*
X68290000Y-63055000D01*
G75*
G02*
X68365000Y-63130000I0J-75000D01*
G01*
G37*
G36*
G01*
X69390000Y-64155000D02*
X69390000Y-65605000D01*
G75*
G02*
X69315000Y-65680000I-75000J0D01*
G01*
X69165000Y-65680000D01*
G75*
G02*
X69090000Y-65605000I0J75000D01*
G01*
X69090000Y-64155000D01*
G75*
G02*
X69165000Y-64080000I75000J0D01*
G01*
X69315000Y-64080000D01*
G75*
G02*
X69390000Y-64155000I0J-75000D01*
G01*
G37*
G36*
G01*
X69890000Y-64155000D02*
X69890000Y-65605000D01*
G75*
G02*
X69815000Y-65680000I-75000J0D01*
G01*
X69665000Y-65680000D01*
G75*
G02*
X69590000Y-65605000I0J75000D01*
G01*
X69590000Y-64155000D01*
G75*
G02*
X69665000Y-64080000I75000J0D01*
G01*
X69815000Y-64080000D01*
G75*
G02*
X69890000Y-64155000I0J-75000D01*
G01*
G37*
G36*
G01*
X70390000Y-64155000D02*
X70390000Y-65605000D01*
G75*
G02*
X70315000Y-65680000I-75000J0D01*
G01*
X70165000Y-65680000D01*
G75*
G02*
X70090000Y-65605000I0J75000D01*
G01*
X70090000Y-64155000D01*
G75*
G02*
X70165000Y-64080000I75000J0D01*
G01*
X70315000Y-64080000D01*
G75*
G02*
X70390000Y-64155000I0J-75000D01*
G01*
G37*
G36*
G01*
X70890000Y-64155000D02*
X70890000Y-65605000D01*
G75*
G02*
X70815000Y-65680000I-75000J0D01*
G01*
X70665000Y-65680000D01*
G75*
G02*
X70590000Y-65605000I0J75000D01*
G01*
X70590000Y-64155000D01*
G75*
G02*
X70665000Y-64080000I75000J0D01*
G01*
X70815000Y-64080000D01*
G75*
G02*
X70890000Y-64155000I0J-75000D01*
G01*
G37*
G36*
G01*
X71390000Y-64155000D02*
X71390000Y-65605000D01*
G75*
G02*
X71315000Y-65680000I-75000J0D01*
G01*
X71165000Y-65680000D01*
G75*
G02*
X71090000Y-65605000I0J75000D01*
G01*
X71090000Y-64155000D01*
G75*
G02*
X71165000Y-64080000I75000J0D01*
G01*
X71315000Y-64080000D01*
G75*
G02*
X71390000Y-64155000I0J-75000D01*
G01*
G37*
G36*
G01*
X71890000Y-64155000D02*
X71890000Y-65605000D01*
G75*
G02*
X71815000Y-65680000I-75000J0D01*
G01*
X71665000Y-65680000D01*
G75*
G02*
X71590000Y-65605000I0J75000D01*
G01*
X71590000Y-64155000D01*
G75*
G02*
X71665000Y-64080000I75000J0D01*
G01*
X71815000Y-64080000D01*
G75*
G02*
X71890000Y-64155000I0J-75000D01*
G01*
G37*
G36*
G01*
X72390000Y-64155000D02*
X72390000Y-65605000D01*
G75*
G02*
X72315000Y-65680000I-75000J0D01*
G01*
X72165000Y-65680000D01*
G75*
G02*
X72090000Y-65605000I0J75000D01*
G01*
X72090000Y-64155000D01*
G75*
G02*
X72165000Y-64080000I75000J0D01*
G01*
X72315000Y-64080000D01*
G75*
G02*
X72390000Y-64155000I0J-75000D01*
G01*
G37*
G36*
G01*
X72890000Y-64155000D02*
X72890000Y-65605000D01*
G75*
G02*
X72815000Y-65680000I-75000J0D01*
G01*
X72665000Y-65680000D01*
G75*
G02*
X72590000Y-65605000I0J75000D01*
G01*
X72590000Y-64155000D01*
G75*
G02*
X72665000Y-64080000I75000J0D01*
G01*
X72815000Y-64080000D01*
G75*
G02*
X72890000Y-64155000I0J-75000D01*
G01*
G37*
G36*
G01*
X73390000Y-64155000D02*
X73390000Y-65605000D01*
G75*
G02*
X73315000Y-65680000I-75000J0D01*
G01*
X73165000Y-65680000D01*
G75*
G02*
X73090000Y-65605000I0J75000D01*
G01*
X73090000Y-64155000D01*
G75*
G02*
X73165000Y-64080000I75000J0D01*
G01*
X73315000Y-64080000D01*
G75*
G02*
X73390000Y-64155000I0J-75000D01*
G01*
G37*
G36*
G01*
X73890000Y-64155000D02*
X73890000Y-65605000D01*
G75*
G02*
X73815000Y-65680000I-75000J0D01*
G01*
X73665000Y-65680000D01*
G75*
G02*
X73590000Y-65605000I0J75000D01*
G01*
X73590000Y-64155000D01*
G75*
G02*
X73665000Y-64080000I75000J0D01*
G01*
X73815000Y-64080000D01*
G75*
G02*
X73890000Y-64155000I0J-75000D01*
G01*
G37*
G36*
G01*
X74390000Y-64155000D02*
X74390000Y-65605000D01*
G75*
G02*
X74315000Y-65680000I-75000J0D01*
G01*
X74165000Y-65680000D01*
G75*
G02*
X74090000Y-65605000I0J75000D01*
G01*
X74090000Y-64155000D01*
G75*
G02*
X74165000Y-64080000I75000J0D01*
G01*
X74315000Y-64080000D01*
G75*
G02*
X74390000Y-64155000I0J-75000D01*
G01*
G37*
G36*
G01*
X74890000Y-64155000D02*
X74890000Y-65605000D01*
G75*
G02*
X74815000Y-65680000I-75000J0D01*
G01*
X74665000Y-65680000D01*
G75*
G02*
X74590000Y-65605000I0J75000D01*
G01*
X74590000Y-64155000D01*
G75*
G02*
X74665000Y-64080000I75000J0D01*
G01*
X74815000Y-64080000D01*
G75*
G02*
X74890000Y-64155000I0J-75000D01*
G01*
G37*
G36*
G01*
X75390000Y-64155000D02*
X75390000Y-65605000D01*
G75*
G02*
X75315000Y-65680000I-75000J0D01*
G01*
X75165000Y-65680000D01*
G75*
G02*
X75090000Y-65605000I0J75000D01*
G01*
X75090000Y-64155000D01*
G75*
G02*
X75165000Y-64080000I75000J0D01*
G01*
X75315000Y-64080000D01*
G75*
G02*
X75390000Y-64155000I0J-75000D01*
G01*
G37*
G36*
G01*
X75890000Y-64155000D02*
X75890000Y-65605000D01*
G75*
G02*
X75815000Y-65680000I-75000J0D01*
G01*
X75665000Y-65680000D01*
G75*
G02*
X75590000Y-65605000I0J75000D01*
G01*
X75590000Y-64155000D01*
G75*
G02*
X75665000Y-64080000I75000J0D01*
G01*
X75815000Y-64080000D01*
G75*
G02*
X75890000Y-64155000I0J-75000D01*
G01*
G37*
G36*
G01*
X76390000Y-64155000D02*
X76390000Y-65605000D01*
G75*
G02*
X76315000Y-65680000I-75000J0D01*
G01*
X76165000Y-65680000D01*
G75*
G02*
X76090000Y-65605000I0J75000D01*
G01*
X76090000Y-64155000D01*
G75*
G02*
X76165000Y-64080000I75000J0D01*
G01*
X76315000Y-64080000D01*
G75*
G02*
X76390000Y-64155000I0J-75000D01*
G01*
G37*
G36*
G01*
X76890000Y-64155000D02*
X76890000Y-65605000D01*
G75*
G02*
X76815000Y-65680000I-75000J0D01*
G01*
X76665000Y-65680000D01*
G75*
G02*
X76590000Y-65605000I0J75000D01*
G01*
X76590000Y-64155000D01*
G75*
G02*
X76665000Y-64080000I75000J0D01*
G01*
X76815000Y-64080000D01*
G75*
G02*
X76890000Y-64155000I0J-75000D01*
G01*
G37*
G36*
G01*
X77390000Y-64155000D02*
X77390000Y-65605000D01*
G75*
G02*
X77315000Y-65680000I-75000J0D01*
G01*
X77165000Y-65680000D01*
G75*
G02*
X77090000Y-65605000I0J75000D01*
G01*
X77090000Y-64155000D01*
G75*
G02*
X77165000Y-64080000I75000J0D01*
G01*
X77315000Y-64080000D01*
G75*
G02*
X77390000Y-64155000I0J-75000D01*
G01*
G37*
G36*
G01*
X77890000Y-64155000D02*
X77890000Y-65605000D01*
G75*
G02*
X77815000Y-65680000I-75000J0D01*
G01*
X77665000Y-65680000D01*
G75*
G02*
X77590000Y-65605000I0J75000D01*
G01*
X77590000Y-64155000D01*
G75*
G02*
X77665000Y-64080000I75000J0D01*
G01*
X77815000Y-64080000D01*
G75*
G02*
X77890000Y-64155000I0J-75000D01*
G01*
G37*
G36*
G01*
X78390000Y-64155000D02*
X78390000Y-65605000D01*
G75*
G02*
X78315000Y-65680000I-75000J0D01*
G01*
X78165000Y-65680000D01*
G75*
G02*
X78090000Y-65605000I0J75000D01*
G01*
X78090000Y-64155000D01*
G75*
G02*
X78165000Y-64080000I75000J0D01*
G01*
X78315000Y-64080000D01*
G75*
G02*
X78390000Y-64155000I0J-75000D01*
G01*
G37*
G36*
G01*
X78890000Y-64155000D02*
X78890000Y-65605000D01*
G75*
G02*
X78815000Y-65680000I-75000J0D01*
G01*
X78665000Y-65680000D01*
G75*
G02*
X78590000Y-65605000I0J75000D01*
G01*
X78590000Y-64155000D01*
G75*
G02*
X78665000Y-64080000I75000J0D01*
G01*
X78815000Y-64080000D01*
G75*
G02*
X78890000Y-64155000I0J-75000D01*
G01*
G37*
G36*
G01*
X79390000Y-64155000D02*
X79390000Y-65605000D01*
G75*
G02*
X79315000Y-65680000I-75000J0D01*
G01*
X79165000Y-65680000D01*
G75*
G02*
X79090000Y-65605000I0J75000D01*
G01*
X79090000Y-64155000D01*
G75*
G02*
X79165000Y-64080000I75000J0D01*
G01*
X79315000Y-64080000D01*
G75*
G02*
X79390000Y-64155000I0J-75000D01*
G01*
G37*
G36*
G01*
X79890000Y-64155000D02*
X79890000Y-65605000D01*
G75*
G02*
X79815000Y-65680000I-75000J0D01*
G01*
X79665000Y-65680000D01*
G75*
G02*
X79590000Y-65605000I0J75000D01*
G01*
X79590000Y-64155000D01*
G75*
G02*
X79665000Y-64080000I75000J0D01*
G01*
X79815000Y-64080000D01*
G75*
G02*
X79890000Y-64155000I0J-75000D01*
G01*
G37*
G36*
G01*
X80390000Y-64155000D02*
X80390000Y-65605000D01*
G75*
G02*
X80315000Y-65680000I-75000J0D01*
G01*
X80165000Y-65680000D01*
G75*
G02*
X80090000Y-65605000I0J75000D01*
G01*
X80090000Y-64155000D01*
G75*
G02*
X80165000Y-64080000I75000J0D01*
G01*
X80315000Y-64080000D01*
G75*
G02*
X80390000Y-64155000I0J-75000D01*
G01*
G37*
G36*
G01*
X80890000Y-64155000D02*
X80890000Y-65605000D01*
G75*
G02*
X80815000Y-65680000I-75000J0D01*
G01*
X80665000Y-65680000D01*
G75*
G02*
X80590000Y-65605000I0J75000D01*
G01*
X80590000Y-64155000D01*
G75*
G02*
X80665000Y-64080000I75000J0D01*
G01*
X80815000Y-64080000D01*
G75*
G02*
X80890000Y-64155000I0J-75000D01*
G01*
G37*
G36*
G01*
X81390000Y-64155000D02*
X81390000Y-65605000D01*
G75*
G02*
X81315000Y-65680000I-75000J0D01*
G01*
X81165000Y-65680000D01*
G75*
G02*
X81090000Y-65605000I0J75000D01*
G01*
X81090000Y-64155000D01*
G75*
G02*
X81165000Y-64080000I75000J0D01*
G01*
X81315000Y-64080000D01*
G75*
G02*
X81390000Y-64155000I0J-75000D01*
G01*
G37*
%TD*%
D12*
%TO.C,U2*%
X110065000Y-43415000D03*
X110065000Y-44065000D03*
X110065000Y-44715000D03*
X110065000Y-45365000D03*
X110065000Y-46015000D03*
X110065000Y-46665000D03*
X110065000Y-47315000D03*
X110065000Y-47965000D03*
X110065000Y-48615000D03*
X110065000Y-49265000D03*
X110065000Y-49915000D03*
X110065000Y-50565000D03*
X117265000Y-50565000D03*
X117265000Y-49915000D03*
X117265000Y-49265000D03*
X117265000Y-48615000D03*
X117265000Y-47965000D03*
X117265000Y-47315000D03*
X117265000Y-46665000D03*
X117265000Y-46015000D03*
X117265000Y-45365000D03*
X117265000Y-44715000D03*
X117265000Y-44065000D03*
X117265000Y-43415000D03*
%TD*%
%TO.C,U3*%
X41065000Y-43415000D03*
X41065000Y-44065000D03*
X41065000Y-44715000D03*
X41065000Y-45365000D03*
X41065000Y-46015000D03*
X41065000Y-46665000D03*
X41065000Y-47315000D03*
X41065000Y-47965000D03*
X41065000Y-48615000D03*
X41065000Y-49265000D03*
X41065000Y-49915000D03*
X41065000Y-50565000D03*
X33865000Y-50565000D03*
X33865000Y-49915000D03*
X33865000Y-49265000D03*
X33865000Y-48615000D03*
X33865000Y-47965000D03*
X33865000Y-47315000D03*
X33865000Y-46665000D03*
X33865000Y-46015000D03*
X33865000Y-45365000D03*
X33865000Y-44715000D03*
X33865000Y-44065000D03*
X33865000Y-43415000D03*
%TD*%
D13*
%TO.C,J7*%
X96520000Y-56515000D03*
X96520000Y-59055000D03*
X99060000Y-56515000D03*
X99060000Y-59055000D03*
X101600000Y-56515000D03*
X101600000Y-59055000D03*
X104140000Y-59055000D03*
X104140000Y-56515000D03*
X106680000Y-59055000D03*
X106680000Y-56515000D03*
%TD*%
%TO.C,J9*%
X20320000Y-57150000D03*
X20320000Y-59690000D03*
X22860000Y-57150000D03*
X22860000Y-59690000D03*
X25400000Y-57150000D03*
X25400000Y-59690000D03*
X27940000Y-59690000D03*
X27940000Y-57150000D03*
X30480000Y-59690000D03*
X30480000Y-57150000D03*
%TD*%
D10*
%TO.C,J5*%
X53340000Y-43815000D03*
D11*
X55880000Y-43815000D03*
%TD*%
D13*
%TO.C,J8*%
X120650000Y-56515000D03*
X120650000Y-59055000D03*
X123190000Y-56515000D03*
X123190000Y-59055000D03*
X125730000Y-56515000D03*
X125730000Y-59055000D03*
X128270000Y-59055000D03*
X128270000Y-56515000D03*
X130810000Y-59055000D03*
X130810000Y-56515000D03*
%TD*%
%TO.C,J10*%
X54610000Y-57150000D03*
X54610000Y-59690000D03*
X52070000Y-57150000D03*
X52070000Y-59690000D03*
X49530000Y-59690000D03*
X49530000Y-57150000D03*
X46990000Y-59690000D03*
X46990000Y-57150000D03*
X44450000Y-59690000D03*
X44450000Y-57150000D03*
%TD*%
%TO.C,C3*%
G36*
G01*
X86442500Y-64532500D02*
X86442500Y-65007500D01*
G75*
G02*
X86205000Y-65245000I-237500J0D01*
G01*
X85605000Y-65245000D01*
G75*
G02*
X85367500Y-65007500I0J237500D01*
G01*
X85367500Y-64532500D01*
G75*
G02*
X85605000Y-64295000I237500J0D01*
G01*
X86205000Y-64295000D01*
G75*
G02*
X86442500Y-64532500I0J-237500D01*
G01*
G37*
G36*
G01*
X88167500Y-64532500D02*
X88167500Y-65007500D01*
G75*
G02*
X87930000Y-65245000I-237500J0D01*
G01*
X87330000Y-65245000D01*
G75*
G02*
X87092500Y-65007500I0J237500D01*
G01*
X87092500Y-64532500D01*
G75*
G02*
X87330000Y-64295000I237500J0D01*
G01*
X87930000Y-64295000D01*
G75*
G02*
X88167500Y-64532500I0J-237500D01*
G01*
G37*
%TD*%
%TO.C,C4*%
G36*
G01*
X88167500Y-49927500D02*
X88167500Y-50402500D01*
G75*
G02*
X87930000Y-50640000I-237500J0D01*
G01*
X87330000Y-50640000D01*
G75*
G02*
X87092500Y-50402500I0J237500D01*
G01*
X87092500Y-49927500D01*
G75*
G02*
X87330000Y-49690000I237500J0D01*
G01*
X87930000Y-49690000D01*
G75*
G02*
X88167500Y-49927500I0J-237500D01*
G01*
G37*
G36*
G01*
X86442500Y-49927500D02*
X86442500Y-50402500D01*
G75*
G02*
X86205000Y-50640000I-237500J0D01*
G01*
X85605000Y-50640000D01*
G75*
G02*
X85367500Y-50402500I0J237500D01*
G01*
X85367500Y-49927500D01*
G75*
G02*
X85605000Y-49690000I237500J0D01*
G01*
X86205000Y-49690000D01*
G75*
G02*
X86442500Y-49927500I0J-237500D01*
G01*
G37*
%TD*%
D14*
%TO.C,Y1*%
X87630000Y-59810000D03*
X87630000Y-54610000D03*
%TD*%
M02*
