%TF.GenerationSoftware,KiCad,Pcbnew,5.1.9+dfsg1-1*%
%TF.CreationDate,2021-08-18T14:47:46-04:00*%
%TF.ProjectId,custom_toothbrush_board,63757374-6f6d-45f7-946f-6f7468627275,rev?*%
%TF.SameCoordinates,Original*%
%TF.FileFunction,Legend,Bot*%
%TF.FilePolarity,Positive*%
%FSLAX46Y46*%
G04 Gerber Fmt 4.6, Leading zero omitted, Abs format (unit mm)*
G04 Created by KiCad (PCBNEW 5.1.9+dfsg1-1) date 2021-08-18 14:47:46*
%MOMM*%
%LPD*%
G01*
G04 APERTURE LIST*
%ADD10C,0.150000*%
G04 APERTURE END LIST*
D10*
X24431047Y-42632380D02*
X24431047Y-43346666D01*
X24478666Y-43489523D01*
X24573904Y-43584761D01*
X24716761Y-43632380D01*
X24812000Y-43632380D01*
X23478666Y-43632380D02*
X23954857Y-43632380D01*
X23954857Y-42632380D01*
X22573904Y-43537142D02*
X22621523Y-43584761D01*
X22764380Y-43632380D01*
X22859619Y-43632380D01*
X23002476Y-43584761D01*
X23097714Y-43489523D01*
X23145333Y-43394285D01*
X23192952Y-43203809D01*
X23192952Y-43060952D01*
X23145333Y-42870476D01*
X23097714Y-42775238D01*
X23002476Y-42680000D01*
X22859619Y-42632380D01*
X22764380Y-42632380D01*
X22621523Y-42680000D01*
X22573904Y-42727619D01*
X21859619Y-42632380D02*
X21859619Y-43346666D01*
X21907238Y-43489523D01*
X22002476Y-43584761D01*
X22145333Y-43632380D01*
X22240571Y-43632380D01*
X20907238Y-43632380D02*
X21383428Y-43632380D01*
X21383428Y-42632380D01*
X20002476Y-43537142D02*
X20050095Y-43584761D01*
X20192952Y-43632380D01*
X20288190Y-43632380D01*
X20431047Y-43584761D01*
X20526285Y-43489523D01*
X20573904Y-43394285D01*
X20621523Y-43203809D01*
X20621523Y-43060952D01*
X20573904Y-42870476D01*
X20526285Y-42775238D01*
X20431047Y-42680000D01*
X20288190Y-42632380D01*
X20192952Y-42632380D01*
X20050095Y-42680000D01*
X20002476Y-42727619D01*
X19288190Y-42632380D02*
X19288190Y-43346666D01*
X19335809Y-43489523D01*
X19431047Y-43584761D01*
X19573904Y-43632380D01*
X19669142Y-43632380D01*
X18335809Y-43632380D02*
X18812000Y-43632380D01*
X18812000Y-42632380D01*
X17431047Y-43537142D02*
X17478666Y-43584761D01*
X17621523Y-43632380D01*
X17716761Y-43632380D01*
X17859619Y-43584761D01*
X17954857Y-43489523D01*
X18002476Y-43394285D01*
X18050095Y-43203809D01*
X18050095Y-43060952D01*
X18002476Y-42870476D01*
X17954857Y-42775238D01*
X17859619Y-42680000D01*
X17716761Y-42632380D01*
X17621523Y-42632380D01*
X17478666Y-42680000D01*
X17431047Y-42727619D01*
X16716761Y-42632380D02*
X16716761Y-43346666D01*
X16764380Y-43489523D01*
X16859619Y-43584761D01*
X17002476Y-43632380D01*
X17097714Y-43632380D01*
X15764380Y-43632380D02*
X16240571Y-43632380D01*
X16240571Y-42632380D01*
X14859619Y-43537142D02*
X14907238Y-43584761D01*
X15050095Y-43632380D01*
X15145333Y-43632380D01*
X15288190Y-43584761D01*
X15383428Y-43489523D01*
X15431047Y-43394285D01*
X15478666Y-43203809D01*
X15478666Y-43060952D01*
X15431047Y-42870476D01*
X15383428Y-42775238D01*
X15288190Y-42680000D01*
X15145333Y-42632380D01*
X15050095Y-42632380D01*
X14907238Y-42680000D01*
X14859619Y-42727619D01*
M02*
