%TF.GenerationSoftware,KiCad,Pcbnew,5.1.9+dfsg1-1*%
%TF.CreationDate,2021-08-18T14:47:46-04:00*%
%TF.ProjectId,custom_toothbrush_board,63757374-6f6d-45f7-946f-6f7468627275,rev?*%
%TF.SameCoordinates,Original*%
%TF.FileFunction,Soldermask,Bot*%
%TF.FilePolarity,Negative*%
%FSLAX46Y46*%
G04 Gerber Fmt 4.6, Leading zero omitted, Abs format (unit mm)*
G04 Created by KiCad (PCBNEW 5.1.9+dfsg1-1) date 2021-08-18 14:47:46*
%MOMM*%
%LPD*%
G01*
G04 APERTURE LIST*
%ADD10R,1.700000X1.700000*%
%ADD11O,1.700000X1.700000*%
%ADD12C,1.853200*%
G04 APERTURE END LIST*
D10*
%TO.C,J1*%
X133350000Y-69850000D03*
D11*
X130810000Y-69850000D03*
X128270000Y-69850000D03*
X125730000Y-69850000D03*
X123190000Y-69850000D03*
X120650000Y-69850000D03*
X118110000Y-69850000D03*
X115570000Y-69850000D03*
X113030000Y-69850000D03*
X110490000Y-69850000D03*
X107950000Y-69850000D03*
X105410000Y-69850000D03*
X102870000Y-69850000D03*
X100330000Y-69850000D03*
X97790000Y-69850000D03*
%TD*%
%TO.C,J2*%
X19050000Y-69850000D03*
X21590000Y-69850000D03*
X24130000Y-69850000D03*
X26670000Y-69850000D03*
X29210000Y-69850000D03*
X31750000Y-69850000D03*
X34290000Y-69850000D03*
X36830000Y-69850000D03*
X39370000Y-69850000D03*
X41910000Y-69850000D03*
X44450000Y-69850000D03*
X46990000Y-69850000D03*
X49530000Y-69850000D03*
X52070000Y-69850000D03*
D10*
X54610000Y-69850000D03*
%TD*%
%TO.C,J3*%
X81280000Y-43815000D03*
D11*
X78740000Y-43815000D03*
X76200000Y-43815000D03*
X73660000Y-43815000D03*
X71120000Y-43815000D03*
X68580000Y-43815000D03*
%TD*%
D10*
%TO.C,J4*%
X71120000Y-69850000D03*
D11*
X73660000Y-69850000D03*
X76200000Y-69850000D03*
X78740000Y-69850000D03*
%TD*%
D10*
%TO.C,J6*%
X95250000Y-43815000D03*
D11*
X97790000Y-43815000D03*
%TD*%
D12*
%TO.C,J7*%
X96520000Y-56515000D03*
X96520000Y-59055000D03*
X99060000Y-56515000D03*
X99060000Y-59055000D03*
X101600000Y-56515000D03*
X101600000Y-59055000D03*
X104140000Y-59055000D03*
X104140000Y-56515000D03*
X106680000Y-59055000D03*
X106680000Y-56515000D03*
%TD*%
%TO.C,J9*%
X20320000Y-57150000D03*
X20320000Y-59690000D03*
X22860000Y-57150000D03*
X22860000Y-59690000D03*
X25400000Y-57150000D03*
X25400000Y-59690000D03*
X27940000Y-59690000D03*
X27940000Y-57150000D03*
X30480000Y-59690000D03*
X30480000Y-57150000D03*
%TD*%
D10*
%TO.C,J5*%
X53340000Y-43815000D03*
D11*
X55880000Y-43815000D03*
%TD*%
D12*
%TO.C,J8*%
X120650000Y-56515000D03*
X120650000Y-59055000D03*
X123190000Y-56515000D03*
X123190000Y-59055000D03*
X125730000Y-56515000D03*
X125730000Y-59055000D03*
X128270000Y-59055000D03*
X128270000Y-56515000D03*
X130810000Y-59055000D03*
X130810000Y-56515000D03*
%TD*%
%TO.C,J10*%
X54610000Y-57150000D03*
X54610000Y-59690000D03*
X52070000Y-57150000D03*
X52070000Y-59690000D03*
X49530000Y-59690000D03*
X49530000Y-57150000D03*
X46990000Y-59690000D03*
X46990000Y-57150000D03*
X44450000Y-59690000D03*
X44450000Y-57150000D03*
%TD*%
M02*
